<?xml version="1.0" encoding="UTF-8" standalone="no"?>
<!-- Created with Inkscape (http://www.inkscape.org/) -->

<svg
   xmlns:osb="http://www.openswatchbook.org/uri/2009/osb"
   xmlns:dc="http://purl.org/dc/elements/1.1/"
   xmlns:cc="http://creativecommons.org/ns#"
   xmlns:rdf="http://www.w3.org/1999/02/22-rdf-syntax-ns#"
   xmlns:svg="http://www.w3.org/2000/svg"
   xmlns="http://www.w3.org/2000/svg"
   xmlns:sodipodi="http://sodipodi.sourceforge.net/DTD/sodipodi-0.dtd"
   xmlns:inkscape="http://www.inkscape.org/namespaces/inkscape"
   width="210mm"
   height="297mm"
   viewBox="0 0 210 297"
   version="1.1"
   id="svg8"
   inkscape:version="0.92.3 (2405546, 2018-03-11)"
   sodipodi:docname="textures.svg">
  <defs
     id="defs2">
    <linearGradient
       id="linearGradient7372"
       osb:paint="solid">
      <stop
         style="stop-color:#ff9600;stop-opacity:1;"
         offset="0"
         id="stop7370" />
    </linearGradient>
    <meshgradient
       inkscape:collect="always"
       id="meshgradient6867"
       gradientUnits="userSpaceOnUse"
       x="150.25442"
       y="158.67014">
      <meshrow
         id="meshrow6869">
        <meshpatch
           id="meshpatch6871">
          <stop
             path="c 1.15384,-1.15384  3.02458,-1.15384  4.17842,0"
             style="stop-color:#ffffff;stop-opacity:1"
             id="stop6873" />
          <stop
             path="c 1.15384,1.15384  1.15384,3.02458  0,4.17842"
             style="stop-color:#0c2b9c;stop-opacity:1"
             id="stop6875" />
          <stop
             path="c -1.15384,1.15384  -3.02458,1.15384  -4.17842,0"
             style="stop-color:#ffffff;stop-opacity:1"
             id="stop6877" />
          <stop
             path="c -1.15384,-1.15384  -1.15384,-3.02458  0,-4.17842"
             style="stop-color:#0c2b9c;stop-opacity:1"
             id="stop6879" />
        </meshpatch>
      </meshrow>
    </meshgradient>
    <filter
       inkscape:collect="always"
       style="color-interpolation-filters:sRGB"
       id="filter11741"
       x="-0.0384"
       width="1.0768"
       y="-0.0384"
       height="1.0768">
      <feGaussianBlur
         inkscape:collect="always"
         stdDeviation="0.30682541"
         id="feGaussianBlur11743" />
    </filter>
  </defs>
  <sodipodi:namedview
     id="base"
     pagecolor="#ffffff"
     bordercolor="#666666"
     borderopacity="1.0"
     inkscape:pageopacity="0.0"
     inkscape:pageshadow="2"
     inkscape:zoom="2.8"
     inkscape:cx="32.054387"
     inkscape:cy="434.66884"
     inkscape:document-units="mm"
     inkscape:current-layer="layer1"
     showgrid="false"
     inkscape:window-width="3840"
     inkscape:window-height="2095"
     inkscape:window-x="0"
     inkscape:window-y="0"
     inkscape:window-maximized="1" />
  <metadata
     id="metadata5">
    <rdf:RDF>
      <cc:Work
         rdf:about="">
        <dc:format>image/svg+xml</dc:format>
        <dc:type
           rdf:resource="http://purl.org/dc/dcmitype/StillImage" />
        <dc:title />
      </cc:Work>
    </rdf:RDF>
  </metadata>
  <g
     inkscape:label="Layer 1"
     inkscape:groupmode="layer"
     id="layer1">
    <circle
       style="fill:url(#meshgradient6867);fill-opacity:1;stroke:#ffffff;stroke-width:0.069;stroke-miterlimit:4;stroke-dasharray:none;stroke-dashoffset:0;stroke-opacity:1;"
       id="path4767-3-9-6"
       cx="152.34363"
       cy="160.75935"
       r="2.9545889"
       inkscape:export-xdpi="102.30383"
       inkscape:export-ydpi="102.30383" />
    <circle
       style="opacity:1;fill:#ff9600;fill-opacity:1;stroke:none;stroke-width:0.069;stroke-miterlimit:4;stroke-dasharray:none;stroke-dashoffset:0;stroke-opacity:1;filter:url(#filter11741)"
       id="path7122"
       cy="215.38257"
       cx="25.624466"
       r="9.588294"
       transform="matrix(0.58974934,0,0,0.58974934,14.721949,60.832079)"
       inkscape:export-xdpi="62.572155"
       inkscape:export-ydpi="62.572155" />
    <g
       id="g6328"
       transform="translate(-5.764137,-33.828869)"
       inkscape:export-xdpi="10.317185"
       inkscape:export-ydpi="10.317185">
      <g
         inkscape:export-ydpi="18.856178"
         inkscape:export-xdpi="18.856178"
         id="g6825">
        <ellipse
           style="fill:#3a3a3a;fill-opacity:1;stroke:none;stroke-width:0.06941886;stroke-miterlimit:4;stroke-dasharray:none;stroke-dashoffset:0;stroke-opacity:1"
           id="path4765"
           cx="89.936195"
           cy="187.91438"
           rx="16.83798"
           ry="33.675961" />
        <path
           style="fill:none;stroke:#000000;stroke-width:0.12580188px;stroke-linecap:butt;stroke-linejoin:miter;stroke-opacity:1"
           d="M 81.546421,216.95196 79.684162,223.902"
           id="path4784"
           inkscape:connector-curvature="0" />
        <path
           style="fill:none;stroke:#000000;stroke-width:0.12580188px;stroke-linecap:butt;stroke-linejoin:miter;stroke-opacity:1"
           d="m 98.30293,216.95196 1.86226,6.95004"
           id="path4784-6"
           inkscape:connector-curvature="0" />
        <path
           style="fill:none;stroke:#000000;stroke-width:0.12580188px;stroke-linecap:butt;stroke-linejoin:miter;stroke-opacity:1"
           d="m 79.684162,223.902 c 7.098526,5.88284 13.890311,5.11963 20.481028,0"
           id="path4801"
           inkscape:connector-curvature="0"
           sodipodi:nodetypes="cc" />
        <path
           style="fill:none;stroke:#000000;stroke-width:0.11591244px;stroke-linecap:butt;stroke-linejoin:miter;stroke-opacity:1"
           d="m 80.487546,220.68987 c 6.5405,5.42038 12.798378,4.71717 18.870988,0"
           id="path4801-7"
           inkscape:connector-curvature="0"
           sodipodi:nodetypes="cc" />
        <path
           style="fill:none;stroke:#000000;stroke-width:0.12057791px;stroke-linecap:butt;stroke-linejoin:miter;stroke-opacity:1"
           d="m 80.137552,222.4167 c 6.803758,5.63855 13.313513,4.90704 19.630549,0"
           id="path4801-7-5"
           inkscape:connector-curvature="0"
           sodipodi:nodetypes="cc" />
        <path
           style="fill:none;stroke:#000000;stroke-width:0.10997797px;stroke-linecap:butt;stroke-linejoin:miter;stroke-opacity:1"
           d="m 81.023723,219.11654 c 6.205638,5.14287 12.143128,4.47566 17.904837,0"
           id="path4801-7-3"
           inkscape:connector-curvature="0"
           sodipodi:nodetypes="cc" />
        <circle
           style="fill:#b9cfec;fill-opacity:1;stroke:#868686;stroke-width:0.06941886;stroke-miterlimit:4;stroke-dasharray:none;stroke-dashoffset:0;stroke-opacity:1"
           id="path4767-3-5"
           cx="89.801407"
           cy="180.1748"
           r="2.9545889" />
        <circle
           style="fill:#b9cfec;fill-opacity:1;stroke:#868686;stroke-width:0.06941886;stroke-miterlimit:4;stroke-dasharray:none;stroke-dashoffset:0;stroke-opacity:1"
           id="path4767-3-9"
           cx="96.20282"
           cy="172.0771"
           r="2.9545889" />
        <circle
           style="fill:#b9cfec;fill-opacity:1;stroke:#868686;stroke-width:0.06941886;stroke-miterlimit:4;stroke-dasharray:none;stroke-dashoffset:0;stroke-opacity:1"
           id="path4767-3-27"
           cx="83.66407"
           cy="172.08752"
           r="2.9545889" />
      </g>
      <path
         transform="scale(0.26458333)"
         inkscape:connector-curvature="0"
         id="path4770"
         d="m 335.32816,847.94774 c -7.9449,-0.70964 -16.23772,-3.8443 -24.21879,-9.15465 -3.08818,-2.05478 -6.18677,-4.46165 -6.18912,-4.80749 -0.001,-0.15627 0.29712,-1.43715 0.66262,-2.84641 l 0.66456,-2.56228 1.54709,1.24953 c 2.17553,1.75712 5.41113,3.93931 8.34838,5.63041 8.70498,5.01181 17.97016,7.27239 26.64458,6.50091 3.88617,-0.34563 8.10669,-1.23832 11.72895,-2.48081 5.09799,-1.74869 13.04286,-6.0716 17.59182,-9.57195 l 1.43351,-1.10306 0.70148,2.64653 c 0.38581,1.45559 0.65744,2.67997 0.60361,2.72085 -9.20377,6.98915 -18.05345,11.33674 -26.48811,13.01284 -4.78169,0.9502 -8.51069,1.16929 -13.03058,0.76558 z"
         style="opacity:1;fill:#000000;fill-opacity:0;stroke:none;stroke-width:0.06585877;stroke-miterlimit:4;stroke-dasharray:none;stroke-dashoffset:0;stroke-opacity:1" />
      <path
         transform="scale(0.26458333)"
         inkscape:connector-curvature="0"
         id="path4772"
         d="m 335.32816,847.94774 c -7.9449,-0.70964 -16.23772,-3.8443 -24.21879,-9.15465 -3.08818,-2.05478 -6.18677,-4.46165 -6.18912,-4.80749 -0.001,-0.15627 0.29712,-1.43715 0.66262,-2.84641 l 0.66456,-2.56228 1.54709,1.24953 c 2.17553,1.75712 5.41113,3.93931 8.34838,5.63041 8.70498,5.01181 17.97016,7.27239 26.64458,6.50091 3.88617,-0.34563 8.10669,-1.23832 11.72895,-2.48081 5.09799,-1.74869 13.04286,-6.0716 17.59182,-9.57195 l 1.43351,-1.10306 0.70148,2.64653 c 0.38581,1.45559 0.65744,2.67997 0.60361,2.72085 -9.20377,6.98915 -18.05345,11.33674 -26.48811,13.01284 -4.78169,0.9502 -8.51069,1.16929 -13.03058,0.76558 z"
         style="opacity:1;fill:#000000;fill-opacity:0;stroke:none;stroke-width:0.06585877;stroke-miterlimit:4;stroke-dasharray:none;stroke-dashoffset:0;stroke-opacity:1" />
      <path
         transform="scale(0.26458333)"
         inkscape:connector-curvature="0"
         id="path4774"
         d="m 335.32816,847.94773 c -7.9449,-0.70963 -16.23772,-3.84429 -24.21879,-9.15464 -3.08818,-2.05478 -6.18677,-4.46165 -6.18912,-4.80749 -0.001,-0.15627 0.29712,-1.43715 0.66262,-2.84641 l 0.66456,-2.56228 1.54709,1.24953 c 3.64479,2.9438 9.06885,6.27591 13.27288,8.15381 5.88192,2.62739 12.98613,4.29409 15.92713,3.73662 1.11388,-0.21114 1.09385,-0.21908 -1.01016,-0.40012 -6.45707,-0.55561 -13.55581,-2.92055 -19.87485,-6.6213 -2.4136,-1.41353 -7.21117,-4.72809 -8.84652,-6.11192 l -0.81592,-0.69043 0.9228,-3.4812 0.9228,-3.48121 2.49878,2.54284 c 7.1768,7.3033 14.44121,11.64809 22.44368,13.42338 3.42994,0.76091 9.55654,0.82183 12.85076,0.12779 8.12077,-1.71093 15.38892,-5.95002 22.61517,-13.19012 l 2.79093,-2.79628 0.84876,3.30113 c 0.46683,1.81563 0.89074,3.42091 0.94204,3.5673 0.24157,0.68941 -8.15859,6.09507 -13.12533,8.4464 -1.61365,0.76393 -2.93976,1.47419 -2.9469,1.57836 -0.0819,1.19406 9.90842,-4.1917 14.9145,-8.04039 l 1.41669,-1.08916 0.7032,2.653 c 0.68551,2.5863 0.69116,2.66187 0.2248,3.00581 -5.26681,3.88417 -8.69355,6.00009 -13.75805,8.49521 -1.90516,0.93862 -3.52307,1.85411 -3.59536,2.03443 -0.0781,0.19494 -0.13952,0.21201 -0.15137,0.0421 -0.0125,-0.17828 -1.1402,0.073 -2.99847,0.66813 -3.62681,1.16149 -7.34117,1.9237 -11.03734,2.26492 -3.08689,0.28499 -4.24132,0.28228 -7.60101,-0.0178 z m 2.23458,-5.95347 c -0.17362,-0.0701 -0.45773,-0.0701 -0.63135,0 -0.17362,0.07 -0.0316,0.12737 0.31567,0.12737 0.34724,0 0.4893,-0.0573 0.31568,-0.12737 z m 3.53553,-0.0177 c -0.59031,-0.0532 -1.55626,-0.0532 -2.14657,0 -0.59031,0.0532 -0.10733,0.0967 1.07328,0.0967 1.18062,0 1.6636,-0.0435 1.07329,-0.0967 z m 7.47184,-0.85344 c 2.748,-0.59195 7.10925,-1.91967 7.48831,-2.27971 0.39711,-0.37717 -1.28605,-0.088 -3.66184,0.62907 -4.18849,1.26422 -8.0154,1.89812 -11.94793,1.9791 l -2.3177,0.0477 2.27284,0.17203 c 3.04229,0.23026 5.23613,0.083 8.16632,-0.54821 z"
         style="opacity:1;fill:#000000;fill-opacity:0;stroke:none;stroke-width:0.06585877;stroke-miterlimit:4;stroke-dasharray:none;stroke-dashoffset:0;stroke-opacity:1" />
      <path
         transform="scale(0.26458333)"
         inkscape:connector-curvature="0"
         id="path4776"
         d="m 334.9157,855.03072 c -9.05645,-0.94817 -18.19979,-4.69289 -27.2156,-11.14627 -1.31951,-0.94449 -2.88958,-2.14471 -3.48905,-2.66711 l -1.08994,-0.94987 0.70586,-2.58851 c 0.38822,-1.42369 0.77359,-2.58852 0.85639,-2.58852 0.0828,0 0.79124,0.49753 1.57432,1.10559 5.65428,4.39065 15.24925,9.69804 16.88009,9.33711 0.40152,-0.0889 0.49251,-0.0567 0.27646,0.0977 -0.40427,0.28891 3.76198,1.61652 7.51938,2.39611 2.25459,0.46777 3.50249,0.55167 8.33376,0.56013 6.40354,0.0111 9.02933,-0.36565 14.20987,-2.03963 5.10493,-1.64952 12.04594,-4.86646 12.05161,-5.58551 0.004,-0.45439 -0.21332,-0.39717 -1.76528,0.46581 -2.56069,1.42388 -6.91931,3.3162 -9.84899,4.27602 -8.97338,2.93983 -17.93682,3.1839 -26.68766,0.72673 -1.43664,-0.4034 -2.78134,-0.73347 -2.98823,-0.73347 -0.20688,0 -0.37615,-0.087 -0.37615,-0.19327 0,-0.10629 -0.59662,-0.40302 -1.32582,-0.65942 -0.72921,-0.25641 -2.55622,-1.07165 -4.06004,-1.81166 -1.57054,-0.77287 -2.90479,-1.28004 -3.13502,-1.1917 -0.2584,0.0992 -0.33837,0.0528 -0.22506,-0.13054 0.10102,-0.16347 -0.12297,-0.46593 -0.52678,-0.7114 -4.27588,-2.59907 -9.66614,-6.5087 -9.66957,-7.01345 -0.001,-0.15627 0.29712,-1.43715 0.66262,-2.84641 l 0.66456,-2.56228 1.54708,1.25605 c 3.59886,2.92184 9.85718,6.77112 10.29575,6.33256 0.16727,-0.16728 -0.32609,-0.56902 -1.47055,-1.19749 -4.09428,-2.24831 -10.25691,-6.79511 -10.07584,-7.43397 0.72425,-2.55533 1.6669,-6.15328 1.77932,-6.79141 0.10258,-0.58228 0.046,-0.8045 -0.20477,-0.8045 -0.19057,0 -1.00196,-0.8227 -1.80308,-1.82821 -12.28844,-15.42369 -21.67377,-38.94896 -26.37221,-66.10455 -2.50828,-14.49712 -3.42467,-25.69386 -3.42071,-41.79506 0.003,-11.27362 0.2145,-15.91553 1.14567,-25.11843 4.91685,-48.59429 23.46006,-87.04242 47.50132,-98.49087 5.35165,-2.54845 9.02799,-3.39751 14.72931,-3.40176 4.48305,-0.003 6.71429,0.3485 10.6066,1.67256 6.34373,2.15796 11.883,5.83758 17.94535,11.9207 17.4261,17.48579 29.8216,49.88446 33.68262,88.03772 0.96902,9.57558 1.13949,13.36329 1.14224,25.38008 0.003,12.08471 -0.16802,15.87541 -1.14915,25.50635 -3.14256,30.84809 -11.9467,58.33646 -24.66976,77.02414 -2.45094,3.59995 -5.31543,7.19733 -5.73103,7.19733 -0.17985,0 -0.38131,0.28411 -0.44769,0.63135 -0.0664,0.34724 -0.0406,0.63134 0.0573,0.63134 0.0979,0 0.54316,1.39212 0.98949,3.09359 0.44634,1.70148 0.86267,3.27081 0.92517,3.48741 0.20805,0.7209 -5.96069,4.91171 -11.38032,7.73135 -2.69603,1.40267 -3.36108,1.8407 -2.80083,1.84476 1.37213,0.01 9.02061,-4.36415 13.05637,-7.46685 l 1.41669,-1.08916 0.70148,2.64653 c 0.38581,1.45559 0.65744,2.6843 0.60361,2.73047 -0.75422,0.6469 -4.68574,3.41216 -6.03251,4.24301 -0.9699,0.59834 -1.76442,1.22996 -1.76561,1.40358 -0.001,0.17362 0.0831,0.31565 0.18724,0.31565 0.28665,-5e-5 3.8873,-2.3454 6.0045,-3.91116 l 1.87484,-1.3865 0.40769,1.44928 c 0.22423,0.79711 0.56796,2.00972 0.76385,2.69468 0.19589,0.68496 0.35616,1.32141 0.35616,1.41429 0,0.0929 -1.27847,1.08536 -2.84105,2.20547 -9.16526,6.57 -18.29965,10.6143 -27.21098,12.04776 -3.04362,0.48959 -8.81404,0.67529 -11.67528,0.37572 z m 8.64482,-13.1495 c 1.31951,-0.14936 2.54116,-0.27997 2.71478,-0.29025 0.17362,-0.0104 0.31568,-0.17124 0.31568,-0.35764 0,-0.26645 -0.31047,-0.29795 -1.4521,-0.14731 -0.79865,0.10539 -3.61129,0.18241 -6.25032,0.17117 -3.94046,-0.0167 -5.26681,-0.12038 -7.41947,-0.57965 -3.41743,-0.7291 -6.87348,-1.84519 -9.99265,-3.22698 -3.17972,-1.40863 -4.20915,-1.2242 -1.14943,0.20592 7.61576,3.55965 15.86181,5.0591 23.23351,4.22474 z m 6.43972,-1.09602 c 4.21181,-1.03078 8.38984,-2.58296 8.0005,-2.9723 -0.15159,-0.1516 -1.1408,0.0974 -2.68613,0.67622 -1.34539,0.50392 -3.65972,1.20938 -5.14296,1.56774 -3.52167,0.85077 -3.32814,0.78759 -3.32814,1.08657 0,0.37143 0.32681,0.33433 3.15673,-0.35823 z m -8.64021,-3.35525 c -0.72413,-0.0508 -1.9742,-0.0513 -2.77792,0 -0.80372,0.0503 -0.21125,0.0919 1.31661,0.0924 1.52785,0 2.18544,-0.0406 1.46131,-0.0914 z m -6.51208,-0.45944 c -2.65643,-0.44886 -6.05124,-1.44636 -8.12968,-2.38877 -0.92001,-0.41715 -1.71421,-0.717 -1.76488,-0.66632 -0.15656,0.15655 3.27208,1.61012 5.11571,2.16878 2.40238,0.72799 4.85829,1.24004 5.91527,1.2333 0.48614,-0.003 -0.0253,-0.15923 -1.13642,-0.34699 z m 9.40705,0.2187 c -0.24307,-0.0635 -0.64082,-0.0635 -0.88389,0 -0.24306,0.0635 -0.0442,0.11548 0.44195,0.11548 0.48613,0 0.68501,-0.052 0.44194,-0.11548 z m 1.6415,-0.24572 c -0.17362,-0.0701 -0.45773,-0.0701 -0.63135,0 -0.17362,0.0701 -0.0316,0.12738 0.31567,0.12738 0.34724,0 0.4893,-0.0573 0.31568,-0.12738 z m 1.26269,-0.25254 c -0.17362,-0.0701 -0.45773,-0.0701 -0.63135,0 -0.17362,0.0701 -0.0316,0.12738 0.31567,0.12738 0.34724,0 0.4893,-0.0573 0.31568,-0.12738 z m -22.79157,-3.06542 c 0,-0.19937 -2.11406,-1.31857 -2.469,-1.30711 -0.13433,0.004 1.9392,1.28181 2.40587,1.48222 0.0347,0.0149 0.0631,-0.0639 0.0631,-0.17511 z m -3.40926,-2.07062 c -0.41669,-0.27596 -0.87126,-0.50175 -1.01016,-0.50175 -0.13889,0 0.0884,0.22579 0.50508,0.50175 0.41669,0.27596 0.87126,0.50174 1.01015,0.50174 0.1389,0 -0.0884,-0.22578 -0.50507,-0.50174 z m -1.89404,-1.26269 c -0.34724,-0.27162 -0.74499,-0.49385 -0.88388,-0.49385 -0.1389,0 0.0316,0.22223 0.3788,0.49385 0.34724,0.27161 0.74499,0.49384 0.88389,0.49384 0.13889,0 -0.0316,-0.22223 -0.37881,-0.49384 z m -1.38896,-1.01016 c -0.0858,-0.13889 -0.26972,-0.25254 -0.40861,-0.25254 -0.1389,0 -0.18231,0.11365 -0.0965,0.25254 0.0858,0.1389 0.26972,0.25254 0.40862,0.25254 0.13889,0 0.1823,-0.11364 0.0965,-0.25254 z m -1.26269,-1.01015 c -0.0858,-0.1389 -0.26972,-0.25254 -0.40862,-0.25254 -0.13889,0 -0.1823,0.11364 -0.0965,0.25254 0.0858,0.1389 0.26972,0.25254 0.40862,0.25254 0.13889,0 0.1823,-0.11364 0.0965,-0.25254 z m -1.38896,-1.13642 c -0.17291,-0.20835 -0.42803,-0.37881 -0.56692,-0.37881 -0.14087,0 -0.11353,0.1675 0.0618,0.37881 0.17291,0.20834 0.42803,0.37881 0.56692,0.37881 0.14088,0 0.11353,-0.1675 -0.0618,-0.37881 z m 50.00255,0.12627 c 0,-0.1389 -0.0501,-0.25254 -0.11136,-0.25254 -0.0613,0 -0.1816,0.11364 -0.26745,0.25254 -0.0858,0.13889 -0.0357,0.25254 0.11137,0.25254 0.14709,0 0.26744,-0.11365 0.26744,-0.25254 z m -53.27938,-3.15048 c -0.75104,-0.76049 -1.42216,-1.32608 -1.49137,-1.25687 -0.16541,0.1654 2.27496,2.63958 2.60351,2.63958 0.13937,0 -0.36109,-0.62222 -1.11214,-1.38271 z m 56.93465,-0.12591 c 0.82108,-0.82975 1.43619,-1.56531 1.36691,-1.63459 -0.0693,-0.0693 -0.85499,0.60959 -1.74603,1.50862 -0.89103,0.89902 -1.50615,1.63459 -1.36691,1.63459 0.13923,0 0.92494,-0.67888 1.74603,-1.50862 z m -27.09061,-131.8572 c 3.42153,-0.71134 6.56622,-3.20569 8.05652,-6.39039 3.52121,-7.52466 -1.92609,-16.05982 -10.2497,-16.05982 -8.43388,0 -13.84639,8.74043 -10.10941,16.32524 2.26076,4.58859 7.39576,7.1451 12.30259,6.12497 z m -23.23351,-30.55711 c 5.91231,-1.22918 10.04001,-7.02978 9.0885,-12.77196 -0.63349,-3.82295 -3.14607,-7.14917 -6.61382,-8.75556 -2.19377,-1.01624 -5.62393,-1.22065 -7.98126,-0.47562 -3.6637,1.1579 -6.49415,4.05493 -7.55603,7.73377 -0.31315,1.08489 -0.40103,2.11219 -0.32407,3.78807 0.0892,1.94249 0.2319,2.56211 0.91908,3.99107 2.32531,4.83534 7.4916,7.52474 12.4676,6.49023 z m 48.30612,-0.2726 c 2.92615,-0.75046 5.78494,-3.18542 7.21045,-6.14144 0.75889,-1.57369 0.8626,-2.04502 0.94459,-4.29315 0.10423,-2.85791 -0.33059,-4.54093 -1.74104,-6.73894 -4.62341,-7.20496 -15.76737,-6.54135 -19.55143,1.16425 -2.36339,4.81266 -1.41914,9.85783 2.5255,13.49388 2.79644,2.57766 6.73191,3.51051 10.61193,2.5154 z"
         style="opacity:1;fill:#000000;fill-opacity:0;stroke:none;stroke-width:0.06585877;stroke-miterlimit:4;stroke-dasharray:none;stroke-dashoffset:0;stroke-opacity:1" />
      <path
         transform="scale(0.26458333)"
         inkscape:connector-curvature="0"
         id="path4778"
         d="m 334.84795,836.97051 c -5.94224,-1.00404 -11.58239,-3.5443 -17.29886,-7.7912 -3.01592,-2.24059 -9.36451,-8.38855 -9.17426,-8.88433 0.0796,-0.20733 -0.0181,-0.35683 -0.23299,-0.35683 -0.72642,0 -5.58094,-6.57886 -8.85147,-11.99556 -2.5071,-4.15227 -6.73484,-12.73086 -8.74783,-17.75036 -11.91486,-29.71036 -16.59429,-67.83183 -12.88375,-104.95885 3.10715,-31.08956 11.90559,-58.65338 24.76325,-77.57852 9.07481,-13.35717 19.70088,-21.48976 31.36652,-24.00616 2.88608,-0.62256 9.33838,-0.62321 12.29734,-10e-4 23.91204,5.02627 44.1029,35.5271 52.88416,79.88818 2.77189,14.003 4.10217,27.04562 4.36133,42.76035 0.69202,41.9622 -8.93399,81.56215 -25.87477,106.44483 -2.51505,3.69412 -5.31889,7.19733 -5.76047,7.19733 -0.19604,0 -0.35644,0.20765 -0.35644,0.46144 0,0.66911 -6.24519,6.69884 -9.24839,8.92932 -8.72864,6.48275 -18.26724,9.15827 -27.24337,7.6416 z m 6.74297,-144.84234 c 3.75958,-0.78162 7.21605,-3.7101 8.45907,-7.16693 0.66152,-1.83968 0.86246,-3.80066 0.57604,-5.62161 -1.74234,-11.07722 -16.65572,-13.2888 -21.47779,-3.18505 -3.94027,8.25609 3.5168,17.82928 12.44268,15.97359 z M 318.7899,661.46005 c 5.6899,-1.34119 9.58968,-7.02639 8.66162,-12.62709 -0.63226,-3.81556 -2.98504,-7.01531 -6.3545,-8.64203 -1.6716,-0.80702 -2.19221,-0.93324 -4.22651,-1.02467 -4.13898,-0.18601 -7.47021,1.36017 -9.82649,4.56094 -1.59671,2.16898 -2.21284,4.35564 -2.06874,7.34197 0.13329,2.76236 0.97085,4.84882 2.74819,6.84604 1.15711,1.30025 3.08129,2.67138 3.74891,2.67138 0.21471,0 -0.31824,-0.46302 -1.18435,-1.02894 -5.90065,-3.85548 -6.68739,-12.14242 -1.61123,-16.97149 4.34571,-4.13418 11.16053,-4.07175 15.26531,0.13984 6.50678,6.67612 2.37552,17.76579 -6.90828,18.54411 -1.48962,0.12488 -3.41197,-0.1126 -4.5992,-0.56819 -0.24276,-0.0931 -0.44138,-0.0583 -0.44138,0.0774 0,0.2161 1.03282,0.56907 2.65165,0.90621 1.07315,0.2235 2.5905,0.14097 4.145,-0.22545 z m 46.4889,0.12365 c 3.70766,-0.59126 6.93143,-2.99855 8.60643,-6.42668 0.83711,-1.71325 0.86375,-1.86123 0.86375,-4.79823 0,-2.93699 -0.0266,-3.08497 -0.86375,-4.79822 -1.65909,-3.39556 -5.0499,-5.91959 -8.60643,-6.40642 -8.99246,-1.23089 -15.80259,7.9316 -11.94947,16.07708 1.68883,3.57017 5.77656,6.28173 9.92916,6.58644 0.20835,0.0153 1.11748,-0.09 2.02031,-0.23397 z"
         style="opacity:1;fill:#000000;fill-opacity:0;stroke:none;stroke-width:0.06585877;stroke-miterlimit:4;stroke-dasharray:none;stroke-dashoffset:0;stroke-opacity:1" />
      <path
         transform="scale(0.26458333)"
         inkscape:connector-curvature="0"
         id="path4780"
         d="m 333.42604,841.03002 c -7.22368,-1.17417 -13.87348,-3.90305 -20.80144,-8.53628 -3.08968,-2.0663 -6.20841,-4.54561 -6.10481,-4.85317 0.0468,-0.1389 0.46802,-1.69401 0.93609,-3.4558 l 0.85103,-3.20326 2.66392,2.71068 c 18.04476,18.36151 39.2417,18.53533 57.43505,0.47099 1.65045,-1.63875 3.03175,-2.94726 3.06957,-2.9078 0.0378,0.0395 0.47629,1.6059 0.97439,3.481 l 0.90563,3.40926 -0.56593,0.45383 c -0.31127,0.24961 -2.27058,1.59651 -4.35402,2.99311 -6.75679,4.52934 -14.06965,7.72841 -20.73312,9.06989 -3.53636,0.71194 -10.9788,0.90355 -14.27636,0.36755 z"
         style="opacity:1;fill:#000000;fill-opacity:0;stroke:none;stroke-width:0.06585877;stroke-miterlimit:4;stroke-dasharray:none;stroke-dashoffset:0;stroke-opacity:1" />
      <path
         transform="scale(0.26458333)"
         inkscape:connector-curvature="0"
         id="path4782"
         d="m 333.42604,841.03002 c -7.22368,-1.17417 -13.87348,-3.90305 -20.80144,-8.53628 -3.08968,-2.0663 -6.20841,-4.54561 -6.10481,-4.85317 0.0468,-0.1389 0.46802,-1.69401 0.93609,-3.4558 l 0.85103,-3.20326 2.66392,2.71068 c 18.04476,18.36151 39.2417,18.53533 57.43505,0.47099 1.65045,-1.63875 3.03175,-2.94726 3.06957,-2.9078 0.0378,0.0395 0.47629,1.6059 0.97439,3.481 l 0.90563,3.40926 -0.56593,0.45383 c -0.31127,0.24961 -2.27058,1.59651 -4.35402,2.99311 -6.75679,4.52934 -14.06965,7.72841 -20.73312,9.06989 -3.53636,0.71194 -10.9788,0.90355 -14.27636,0.36755 z"
         style="opacity:1;fill:#000000;fill-opacity:0;stroke:none;stroke-width:0.06585877;stroke-miterlimit:4;stroke-dasharray:none;stroke-dashoffset:0;stroke-opacity:1" />
      <path
         transform="scale(0.26458333)"
         inkscape:connector-curvature="0"
         id="path4787"
         d="m 337.33354,841.51229 c -8.25499,-0.48824 -16.18429,-3.28216 -24.14841,-8.50879 -2.01503,-1.3224 -3.49149,-2.39377 -5.61952,-4.07768 -0.65976,-0.52207 -1.20488,-0.95125 -1.21138,-0.95374 -0.0234,-0.009 1.91161,-7.17509 1.94061,-7.18704 0.0163,-0.007 0.42714,0.42804 0.91292,0.96615 1.82545,2.0221 4.22487,4.32799 6.28123,6.03639 6.33919,5.26654 13.1524,8.48495 19.95051,9.42419 1.75969,0.24313 2.47333,0.28916 4.48256,0.28916 2.00922,0 2.72286,-0.046 4.48255,-0.28916 7.21978,-0.99749 14.48364,-4.58848 21.15007,-10.45583 1.759,-1.54815 3.9117,-3.69052 5.41289,-5.3869 0.38928,-0.43989 0.4996,-0.53228 0.53594,-0.4488 0.0574,0.13181 1.94429,7.19063 1.93939,7.25515 -0.006,0.0828 -2.25414,1.73908 -3.86028,2.84446 -8.3587,5.75264 -16.68847,9.18887 -24.73607,10.20425 -2.23587,0.2821 -5.49937,0.40729 -7.51301,0.28819 z"
         style="opacity:1;fill:#000000;fill-opacity:0;stroke:none;stroke-width:0.01646469;stroke-miterlimit:4;stroke-dasharray:none;stroke-dashoffset:0;stroke-opacity:1" />
      <path
         sodipodi:nodetypes="cc"
         inkscape:connector-curvature="0"
         id="path4789"
         d="m 81.546421,216.95196 c 5.666728,6.23342 11.306551,6.21583 16.756509,0"
         style="fill:none;stroke:#000000;stroke-width:0.16500001;stroke-linecap:butt;stroke-linejoin:miter;stroke-miterlimit:4;stroke-dasharray:none;stroke-opacity:1" />
      <path
         transform="scale(0.26458333)"
         inkscape:connector-curvature="0"
         id="path4793"
         d="m 337.74391,848.2017 c -10.4815,-0.35362 -20.95619,-4.57782 -31.26381,-12.60797 -0.72248,-0.56285 -1.42231,-1.11637 -1.55516,-1.23004 l -0.24156,-0.20667 0.73404,-2.74619 c 0.40373,-1.51041 0.74793,-2.7934 0.7649,-2.85108 0.0238,-0.081 0.25668,0.0764 1.02274,0.69119 8.78986,7.05461 17.74225,11.20105 26.80624,12.41574 2.10003,0.28143 2.77522,0.31946 5.62665,0.31689 2.92274,-0.003 3.87459,-0.069 6.34159,-0.44237 8.74393,-1.32328 17.64967,-5.38442 26.7723,-12.20857 0.46869,-0.35059 0.85784,-0.61591 0.8648,-0.58959 0.007,0.0263 0.32665,1.22368 0.71043,2.66081 0.38379,1.43712 0.69779,2.65033 0.69779,2.69602 0,0.0457 -0.43326,0.4074 -0.96281,0.8038 -8.41478,6.29907 -16.49442,10.29004 -24.62037,12.16132 -2.65879,0.61228 -5.56845,1.01664 -7.97283,1.10801 -1.84599,0.0702 -2.37554,0.0742 -3.72494,0.0287 z"
         style="opacity:1;fill:#000000;fill-opacity:0;stroke:none;stroke-width:0.03937209;stroke-miterlimit:4;stroke-dasharray:none;stroke-dashoffset:0;stroke-opacity:1" />
      <path
         transform="scale(0.26458333)"
         inkscape:connector-curvature="0"
         id="path4795"
         d="m 337.33354,841.51229 c -8.25499,-0.48824 -16.18429,-3.28216 -24.14841,-8.50879 -2.01503,-1.3224 -3.49149,-2.39377 -5.61952,-4.07768 -0.65976,-0.52207 -1.20488,-0.95125 -1.21138,-0.95374 -0.0234,-0.009 1.91161,-7.17509 1.94061,-7.18704 0.0163,-0.007 0.42714,0.42804 0.91292,0.96615 2.95861,3.27733 6.54047,6.46217 9.84833,8.75673 2.81271,1.95109 6.53317,3.95355 9.58653,5.15976 7.05741,2.78797 13.96139,3.02426 21.00215,0.71881 4.03784,-1.32216 8.06644,-3.54535 12.65848,-6.9856 2.91742,-2.18567 6.10897,-5.14423 8.66432,-8.03185 0.38928,-0.43989 0.4996,-0.53228 0.53594,-0.4488 0.0574,0.13181 1.94429,7.19063 1.93939,7.25515 -0.006,0.0828 -2.25414,1.73908 -3.86028,2.84446 -8.3587,5.75264 -16.68847,9.18887 -24.73607,10.20425 -2.23587,0.2821 -5.49937,0.40729 -7.51301,0.28819 z"
         style="opacity:1;fill:#000000;fill-opacity:0;stroke:none;stroke-width:0.03937209;stroke-miterlimit:4;stroke-dasharray:none;stroke-dashoffset:0;stroke-opacity:1" />
      <path
         transform="scale(0.26458333)"
         inkscape:connector-curvature="0"
         id="path4804"
         d="m 337.33354,841.51229 c -8.25499,-0.48824 -16.18429,-3.28216 -24.14841,-8.50879 -2.01503,-1.3224 -3.49149,-2.39377 -5.61952,-4.07768 -0.65976,-0.52207 -1.20488,-0.95125 -1.21138,-0.95374 -0.0234,-0.009 1.91161,-7.17509 1.94061,-7.18704 0.0163,-0.007 0.42714,0.42804 0.91292,0.96615 2.95861,3.27733 6.54047,6.46217 9.84833,8.75673 2.81271,1.95109 6.53317,3.95355 9.58653,5.15976 7.05741,2.78797 13.96139,3.02426 21.00215,0.71881 4.03784,-1.32216 8.06644,-3.54535 12.65848,-6.9856 2.91742,-2.18567 6.10897,-5.14423 8.66432,-8.03185 0.38928,-0.43989 0.4996,-0.53228 0.53594,-0.4488 0.0574,0.13181 1.94429,7.19063 1.93939,7.25515 -0.006,0.0828 -2.25414,1.73908 -3.86028,2.84446 -8.3587,5.75264 -16.68847,9.18887 -24.73607,10.20425 -2.23587,0.2821 -5.49937,0.40729 -7.51301,0.28819 z"
         style="opacity:1;fill:#3e3e3e;fill-opacity:1;stroke:none;stroke-width:0.03937209;stroke-miterlimit:4;stroke-dasharray:none;stroke-dashoffset:0;stroke-opacity:1" />
      <path
         transform="scale(0.26458333)"
         inkscape:connector-curvature="0"
         id="path4806"
         d="m 337.74391,848.2017 c -10.4815,-0.35362 -20.95619,-4.57782 -31.26381,-12.60797 -0.72248,-0.56285 -1.42231,-1.11637 -1.55516,-1.23004 l -0.24156,-0.20667 0.73404,-2.74619 c 0.40373,-1.51041 0.74793,-2.7934 0.7649,-2.85108 0.0238,-0.081 0.25668,0.0764 1.02274,0.69119 8.78986,7.05461 17.74225,11.20105 26.80624,12.41574 2.10003,0.28143 2.77522,0.31946 5.62665,0.31689 2.92274,-0.003 3.87459,-0.069 6.34159,-0.44237 8.74393,-1.32328 17.64967,-5.38442 26.7723,-12.20857 0.46869,-0.35059 0.85784,-0.61591 0.8648,-0.58959 0.007,0.0263 0.32665,1.22368 0.71043,2.66081 0.38379,1.43712 0.69779,2.65033 0.69779,2.69602 0,0.0457 -0.43326,0.4074 -0.96281,0.8038 -8.41478,6.29907 -16.49442,10.29004 -24.62037,12.16132 -2.65879,0.61228 -5.56845,1.01664 -7.97283,1.10801 -1.84599,0.0702 -2.37554,0.0742 -3.72494,0.0287 z"
         style="opacity:1;fill:#3e3e3e;fill-opacity:1;stroke:none;stroke-width:0.03937209;stroke-miterlimit:4;stroke-dasharray:none;stroke-dashoffset:0;stroke-opacity:1" />
      <path
         transform="scale(0.26458333)"
         inkscape:connector-curvature="0"
         id="path4808"
         d="m 337.42824,855.29956 c -3.25802,-0.17807 -6.2051,-0.60782 -9.09137,-1.32572 -8.37687,-2.08356 -16.53353,-6.40812 -24.8167,-13.1575 l -0.50991,-0.41549 0.76405,-2.84865 0.76405,-2.84864 0.62974,0.50455 c 9.22979,7.39493 18.6147,11.78803 27.96699,13.09142 1.97837,0.27571 3.1098,0.3573 5.42957,0.39154 2.46993,0.0365 3.669,-0.0138 5.68211,-0.2383 8.88845,-0.99106 17.79761,-4.59376 27.04485,-10.93642 0.91209,-0.62561 2.96933,-2.11615 3.56799,-2.58516 0.16955,-0.13282 0.31948,-0.23029 0.33319,-0.21659 0.0137,0.0137 0.3656,1.30025 0.78199,2.85899 0.41639,1.55873 0.76753,2.86351 0.78031,2.89951 0.0241,0.068 -1.84684,1.4951 -3.43488,2.61993 -6.09546,4.31749 -12.41826,7.62307 -18.40371,9.62152 -4.03954,1.34874 -7.95365,2.15382 -12.1534,2.49979 -0.82059,0.0676 -4.56339,0.12739 -5.33487,0.0852 z"
         style="opacity:1;fill:#3e3e3e;fill-opacity:1;stroke:none;stroke-width:0.03937209;stroke-miterlimit:4;stroke-dasharray:none;stroke-dashoffset:0;stroke-opacity:1" />
      <path
         transform="scale(0.26458333)"
         inkscape:connector-curvature="0"
         id="path4810"
         d="m 337.30197,861.55188 c -1.50519,-0.0902 -2.54529,-0.17481 -3.47025,-0.28215 -10.49058,-1.21748 -20.87127,-5.93145 -31.12483,-14.13407 -0.58886,-0.47108 -1.1082,-0.88515 -1.1541,-0.92017 -0.0673,-0.0513 0.0462,-0.54796 0.58397,-2.55695 0.36709,-1.3713 0.68233,-2.54285 0.70053,-2.60344 0.0271,-0.0902 0.12661,-0.0324 0.54981,0.3195 1.99314,1.65736 5.22002,3.99972 7.56225,5.48937 6.67698,4.24653 13.38648,6.99009 20.09745,8.21799 2.96511,0.54252 5.01031,0.72188 8.27548,0.72571 3.18212,0.004 5.03678,-0.14409 7.92338,-0.63155 9.26702,-1.56495 18.71996,-5.92642 28.27641,-13.04639 0.74224,-0.553 1.37004,-0.98202 1.39512,-0.95339 0.0472,0.0539 1.32753,4.80603 1.32753,4.92732 0,0.0715 -2.25982,1.77498 -3.72494,2.80789 -5.15249,3.63247 -10.66812,6.69083 -15.68893,8.69933 -5.46,2.1842 -10.60592,3.41615 -16.09931,3.85423 -0.83052,0.0662 -4.73214,0.12858 -5.42957,0.0868 z"
         style="opacity:1;fill:#3e3e3e;fill-opacity:1;stroke:none;stroke-width:0.03937209;stroke-miterlimit:4;stroke-dasharray:none;stroke-dashoffset:0;stroke-opacity:1" />
      <path
         transform="scale(0.26458333)"
         inkscape:connector-curvature="0"
         id="path4816"
         d="m 337.14269,837.10606 c -3.54176,-0.37239 -7.59909,-1.6069 -11.19167,-3.40522 -5.1973,-2.60161 -9.82959,-6.13251 -15.27292,-11.64158 -2.08878,-2.11401 -2.24018,-2.24043 -2.54451,-2.12472 -0.3077,0.11699 -0.39166,0.0382 -1.71046,-1.60532 -16.1846,-20.16937 -26.94397,-53.35494 -29.50405,-91.00057 -0.43057,-6.33139 -0.50662,-8.89993 -0.50662,-17.10946 0,-8.20954 0.0761,-10.77807 0.50662,-17.10946 2.14247,-31.50474 10.08554,-60.20232 22.30531,-80.587 3.47316,-5.79384 7.28987,-10.89128 11.20664,-14.96712 l 1.5471,-1.60993 h 27.94397 27.94397 l 1.54223,1.60993 c 23.28728,24.30955 36.74155,75.32293 33.64356,127.56333 -2.0606,34.74688 -11.12984,66.15405 -25.14838,87.08986 -2.25958,3.37452 -5.70737,7.82914 -6.01994,7.77785 -0.0787,-0.0129 -0.25775,-0.0587 -0.39784,-0.10173 -0.20747,-0.0637 -0.57051,0.26601 -1.95718,1.77777 -5.46053,5.95312 -11.82119,10.69754 -17.57187,13.10686 -4.84555,2.03011 -9.99843,2.84284 -14.81396,2.33651 z m 4.44407,-145.01559 c 2.14823,-0.44373 3.94736,-1.36724 5.49769,-2.82203 2.42152,-2.27228 3.63216,-5.03229 3.63216,-8.28054 0,-3.87439 -1.89233,-7.3755 -5.12901,-9.48949 -1.93954,-1.26678 -3.82722,-1.81159 -6.27683,-1.81159 -5.00259,0 -9.41454,3.34682 -10.82078,8.20846 -0.38963,1.347 -0.48201,3.87533 -0.19412,5.3126 0.40548,2.02436 1.37145,3.87729 2.83912,5.44598 1.73594,1.85544 3.66445,2.94916 6.07083,3.44297 1.14406,0.23476 3.22823,0.23174 4.38094,-0.006 z m -22.27474,-30.78708 c 5.33887,-1.59169 8.68449,-6.51601 8.16409,-12.01649 -0.41456,-4.38182 -3.42402,-8.17914 -7.61068,-9.60311 -1.26735,-0.43106 -2.24723,-0.57803 -3.80968,-0.57144 -2.935,0.0124 -5.48573,1.06334 -7.68492,3.16633 -2.16008,2.06559 -3.30179,4.57577 -3.44938,7.58389 -0.2731,5.56604 3.45884,10.42982 8.92459,11.63129 1.5679,0.34465 3.94942,0.26166 5.46598,-0.19047 z m 47.05181,0.0523 c 4.04766,-1.03346 7.13797,-4.11957 8.23292,-8.22173 0.22723,-0.85131 0.28338,-1.39936 0.28338,-2.76627 0,-1.36691 -0.0562,-1.91496 -0.28338,-2.76627 -0.55017,-2.06118 -1.52401,-3.75718 -3.00554,-5.23432 -2.20544,-2.19891 -4.81803,-3.28252 -7.93202,-3.28993 -2.26553,-0.005 -4.01405,0.46256 -5.92784,1.58642 -1.2358,0.7257 -3.24992,2.77834 -3.94653,4.02199 -2.71572,4.84831 -1.68911,10.70534 2.51265,14.33513 2.6871,2.32132 6.58167,3.2247 10.06636,2.33498 z"
         style="opacity:1;fill:#000000;fill-opacity:1;stroke:none;stroke-width:0.07874417;stroke-miterlimit:4;stroke-dasharray:none;stroke-dashoffset:0;stroke-opacity:1" />
      <path
         transform="scale(0.26458333)"
         inkscape:connector-curvature="0"
         id="path6298"
         d="m 312.78007,595.31566 c 1.95046,-2.20218 7.99309,-6.54326 11.71903,-8.41907 8.53403,-4.29642 17.71475,-4.9444 26.43782,-1.86599 5.21838,1.84159 12.19214,6.24221 15.72245,9.92127 l 0.87029,0.90696 h -27.61533 -27.61534 z"
         style="opacity:1;fill:#ff0000;fill-opacity:1;stroke:none;stroke-width:0.15748835;stroke-miterlimit:4;stroke-dasharray:none;stroke-dashoffset:0;stroke-opacity:1" />
    </g>
  </g>
</svg>
