<?xml version="1.0" encoding="UTF-8" standalone="no"?>
<!-- Created with Inkscape (http://www.inkscape.org/) -->

<svg
   xmlns:osb="http://www.openswatchbook.org/uri/2009/osb"
   xmlns:dc="http://purl.org/dc/elements/1.1/"
   xmlns:cc="http://creativecommons.org/ns#"
   xmlns:rdf="http://www.w3.org/1999/02/22-rdf-syntax-ns#"
   xmlns:svg="http://www.w3.org/2000/svg"
   xmlns="http://www.w3.org/2000/svg"
   xmlns:sodipodi="http://sodipodi.sourceforge.net/DTD/sodipodi-0.dtd"
   xmlns:inkscape="http://www.inkscape.org/namespaces/inkscape"
   width="210mm"
   height="297mm"
   viewBox="0 0 210 297"
   version="1.1"
   id="svg8"
   inkscape:version="0.92.3 (2405546, 2018-03-11)"
   sodipodi:docname="textures.svg">
  <defs
     id="defs2">
    <linearGradient
       id="linearGradient7372"
       osb:paint="solid">
      <stop
         style="stop-color:#ff9600;stop-opacity:1;"
         offset="0"
         id="stop7370" />
    </linearGradient>
    <meshgradient
       inkscape:collect="always"
       id="meshgradient6867"
       gradientUnits="userSpaceOnUse"
       x="150.25442"
       y="158.67014">
      <meshrow
         id="meshrow6869">
        <meshpatch
           id="meshpatch6871">
          <stop
             path="c 1.15384,-1.15384  3.02458,-1.15384  4.17842,0"
             style="stop-color:#ffffff;stop-opacity:1"
             id="stop6873" />
          <stop
             path="c 1.15384,1.15384  1.15384,3.02458  0,4.17842"
             style="stop-color:#0c2b9c;stop-opacity:1"
             id="stop6875" />
          <stop
             path="c -1.15384,1.15384  -3.02458,1.15384  -4.17842,0"
             style="stop-color:#ffffff;stop-opacity:1"
             id="stop6877" />
          <stop
             path="c -1.15384,-1.15384  -1.15384,-3.02458  0,-4.17842"
             style="stop-color:#0c2b9c;stop-opacity:1"
             id="stop6879" />
        </meshpatch>
      </meshrow>
    </meshgradient>
    <filter
       inkscape:collect="always"
       style="color-interpolation-filters:sRGB"
       id="filter11741"
       x="-0.0384"
       width="1.0768"
       y="-0.0384"
       height="1.0768">
      <feGaussianBlur
         inkscape:collect="always"
         stdDeviation="0.30682541"
         id="feGaussianBlur11743" />
    </filter>
  </defs>
  <sodipodi:namedview
     id="base"
     pagecolor="#ffffff"
     bordercolor="#666666"
     borderopacity="1.0"
     inkscape:pageopacity="0.0"
     inkscape:pageshadow="2"
     inkscape:zoom="1.979899"
     inkscape:cx="355.51152"
     inkscape:cy="553.99602"
     inkscape:document-units="mm"
     inkscape:current-layer="layer1"
     showgrid="false"
     inkscape:window-width="1920"
     inkscape:window-height="1015"
     inkscape:window-x="0"
     inkscape:window-y="0"
     inkscape:window-maximized="1" />
  <metadata
     id="metadata5">
    <rdf:RDF>
      <cc:Work
         rdf:about="">
        <dc:format>image/svg+xml</dc:format>
        <dc:type
           rdf:resource="http://purl.org/dc/dcmitype/StillImage" />
        <dc:title />
      </cc:Work>
    </rdf:RDF>
  </metadata>
  <g
     inkscape:label="Layer 1"
     inkscape:groupmode="layer"
     id="layer1">
    <circle
       style="fill:url(#meshgradient6867);fill-opacity:1;stroke:#ffffff;stroke-width:0.069;stroke-miterlimit:4;stroke-dasharray:none;stroke-dashoffset:0;stroke-opacity:1;"
       id="path4767-3-9-6"
       cx="152.34363"
       cy="160.75935"
       r="2.9545889"
       inkscape:export-xdpi="102.30383"
       inkscape:export-ydpi="102.30383" />
    <circle
       style="opacity:1;fill:#ff9600;fill-opacity:1;stroke:none;stroke-width:0.069;stroke-miterlimit:4;stroke-dasharray:none;stroke-dashoffset:0;stroke-opacity:1;filter:url(#filter11741)"
       id="path7122"
       cy="215.38257"
       cx="25.624466"
       r="9.588294"
       transform="matrix(0.58974934,0,0,0.58974934,14.721949,60.832079)"
       inkscape:export-xdpi="62.572155"
       inkscape:export-ydpi="62.572155" />
    <g
       id="g6328"
       transform="translate(-5.764137,-33.828869)"
       inkscape:export-xdpi="12.067954"
       inkscape:export-ydpi="12.067954">
      <g
         inkscape:export-ydpi="18.856178"
         inkscape:export-xdpi="18.856178"
         id="g6825">
        <ellipse
           style="fill:#3a3a3a;fill-opacity:1;stroke:none;stroke-width:0.06941886;stroke-miterlimit:4;stroke-dasharray:none;stroke-dashoffset:0;stroke-opacity:1"
           id="path4765"
           cx="89.936195"
           cy="187.91438"
           rx="16.83798"
           ry="33.675961" />
        <path
           style="fill:none;stroke:#000000;stroke-width:0.12580188px;stroke-linecap:butt;stroke-linejoin:miter;stroke-opacity:1"
           d="M 81.546421,216.95196 79.684162,223.902"
           id="path4784"
           inkscape:connector-curvature="0" />
        <path
           style="fill:none;stroke:#000000;stroke-width:0.12580188px;stroke-linecap:butt;stroke-linejoin:miter;stroke-opacity:1"
           d="m 98.30293,216.95196 1.86226,6.95004"
           id="path4784-6"
           inkscape:connector-curvature="0" />
        <path
           style="fill:none;stroke:#000000;stroke-width:0.12580188px;stroke-linecap:butt;stroke-linejoin:miter;stroke-opacity:1"
           d="m 79.684162,223.902 c 7.098526,5.88284 13.890311,5.11963 20.481028,0"
           id="path4801"
           inkscape:connector-curvature="0"
           sodipodi:nodetypes="cc" />
        <path
           style="fill:none;stroke:#000000;stroke-width:0.11591244px;stroke-linecap:butt;stroke-linejoin:miter;stroke-opacity:1"
           d="m 80.487546,220.68987 c 6.5405,5.42038 12.798378,4.71717 18.870988,0"
           id="path4801-7"
           inkscape:connector-curvature="0"
           sodipodi:nodetypes="cc" />
        <path
           style="fill:none;stroke:#000000;stroke-width:0.12057791px;stroke-linecap:butt;stroke-linejoin:miter;stroke-opacity:1"
           d="m 80.137552,222.4167 c 6.803758,5.63855 13.313513,4.90704 19.630549,0"
           id="path4801-7-5"
           inkscape:connector-curvature="0"
           sodipodi:nodetypes="cc" />
        <path
           style="fill:none;stroke:#000000;stroke-width:0.10997797px;stroke-linecap:butt;stroke-linejoin:miter;stroke-opacity:1"
           d="m 81.023723,219.11654 c 6.205638,5.14287 12.143128,4.47566 17.904837,0"
           id="path4801-7-3"
           inkscape:connector-curvature="0"
           sodipodi:nodetypes="cc" />
        <circle
           style="fill:#b9cfec;fill-opacity:1;stroke:#868686;stroke-width:0.06941886;stroke-miterlimit:4;stroke-dasharray:none;stroke-dashoffset:0;stroke-opacity:1"
           id="path4767-3-5"
           cx="89.801407"
           cy="180.1748"
           r="2.9545889" />
        <circle
           style="fill:#b9cfec;fill-opacity:1;stroke:#868686;stroke-width:0.06941886;stroke-miterlimit:4;stroke-dasharray:none;stroke-dashoffset:0;stroke-opacity:1"
           id="path4767-3-9"
           cx="96.20282"
           cy="172.0771"
           r="2.9545889" />
        <circle
           style="fill:#b9cfec;fill-opacity:1;stroke:#868686;stroke-width:0.06941886;stroke-miterlimit:4;stroke-dasharray:none;stroke-dashoffset:0;stroke-opacity:1"
           id="path4767-3-27"
           cx="83.66407"
           cy="172.08752"
           r="2.9545889" />
      </g>
      <path
         transform="scale(0.26458333)"
         inkscape:connector-curvature="0"
         id="path4770"
         d="m 335.32816,847.94774 c -7.9449,-0.70964 -16.23772,-3.8443 -24.21879,-9.15465 -3.08818,-2.05478 -6.18677,-4.46165 -6.18912,-4.80749 -0.001,-0.15627 0.29712,-1.43715 0.66262,-2.84641 l 0.66456,-2.56228 1.54709,1.24953 c 2.17553,1.75712 5.41113,3.93931 8.34838,5.63041 8.70498,5.01181 17.97016,7.27239 26.64458,6.50091 3.88617,-0.34563 8.10669,-1.23832 11.72895,-2.48081 5.09799,-1.74869 13.04286,-6.0716 17.59182,-9.57195 l 1.43351,-1.10306 0.70148,2.64653 c 0.38581,1.45559 0.65744,2.67997 0.60361,2.72085 -9.20377,6.98915 -18.05345,11.33674 -26.48811,13.01284 -4.78169,0.9502 -8.51069,1.16929 -13.03058,0.76558 z"
         style="opacity:1;fill:#000000;fill-opacity:0;stroke:none;stroke-width:0.06585877;stroke-miterlimit:4;stroke-dasharray:none;stroke-dashoffset:0;stroke-opacity:1" />
      <path
         transform="scale(0.26458333)"
         inkscape:connector-curvature="0"
         id="path4772"
         d="m 335.32816,847.94774 c -7.9449,-0.70964 -16.23772,-3.8443 -24.21879,-9.15465 -3.08818,-2.05478 -6.18677,-4.46165 -6.18912,-4.80749 -0.001,-0.15627 0.29712,-1.43715 0.66262,-2.84641 l 0.66456,-2.56228 1.54709,1.24953 c 2.17553,1.75712 5.41113,3.93931 8.34838,5.63041 8.70498,5.01181 17.97016,7.27239 26.64458,6.50091 3.88617,-0.34563 8.10669,-1.23832 11.72895,-2.48081 5.09799,-1.74869 13.04286,-6.0716 17.59182,-9.57195 l 1.43351,-1.10306 0.70148,2.64653 c 0.38581,1.45559 0.65744,2.67997 0.60361,2.72085 -9.20377,6.98915 -18.05345,11.33674 -26.48811,13.01284 -4.78169,0.9502 -8.51069,1.16929 -13.03058,0.76558 z"
         style="opacity:1;fill:#000000;fill-opacity:0;stroke:none;stroke-width:0.06585877;stroke-miterlimit:4;stroke-dasharray:none;stroke-dashoffset:0;stroke-opacity:1" />
      <path
         transform="scale(0.26458333)"
         inkscape:connector-curvature="0"
         id="path4774"
         d="m 335.32816,847.94773 c -7.9449,-0.70963 -16.23772,-3.84429 -24.21879,-9.15464 -3.08818,-2.05478 -6.18677,-4.46165 -6.18912,-4.80749 -0.001,-0.15627 0.29712,-1.43715 0.66262,-2.84641 l 0.66456,-2.56228 1.54709,1.24953 c 3.64479,2.9438 9.06885,6.27591 13.27288,8.15381 5.88192,2.62739 12.98613,4.29409 15.92713,3.73662 1.11388,-0.21114 1.09385,-0.21908 -1.01016,-0.40012 -6.45707,-0.55561 -13.55581,-2.92055 -19.87485,-6.6213 -2.4136,-1.41353 -7.21117,-4.72809 -8.84652,-6.11192 l -0.81592,-0.69043 0.9228,-3.4812 0.9228,-3.48121 2.49878,2.54284 c 7.1768,7.3033 14.44121,11.64809 22.44368,13.42338 3.42994,0.76091 9.55654,0.82183 12.85076,0.12779 8.12077,-1.71093 15.38892,-5.95002 22.61517,-13.19012 l 2.79093,-2.79628 0.84876,3.30113 c 0.46683,1.81563 0.89074,3.42091 0.94204,3.5673 0.24157,0.68941 -8.15859,6.09507 -13.12533,8.4464 -1.61365,0.76393 -2.93976,1.47419 -2.9469,1.57836 -0.0819,1.19406 9.90842,-4.1917 14.9145,-8.04039 l 1.41669,-1.08916 0.7032,2.653 c 0.68551,2.5863 0.69116,2.66187 0.2248,3.00581 -5.26681,3.88417 -8.69355,6.00009 -13.75805,8.49521 -1.90516,0.93862 -3.52307,1.85411 -3.59536,2.03443 -0.0781,0.19494 -0.13952,0.21201 -0.15137,0.0421 -0.0125,-0.17828 -1.1402,0.073 -2.99847,0.66813 -3.62681,1.16149 -7.34117,1.9237 -11.03734,2.26492 -3.08689,0.28499 -4.24132,0.28228 -7.60101,-0.0178 z m 2.23458,-5.95347 c -0.17362,-0.0701 -0.45773,-0.0701 -0.63135,0 -0.17362,0.07 -0.0316,0.12737 0.31567,0.12737 0.34724,0 0.4893,-0.0573 0.31568,-0.12737 z m 3.53553,-0.0177 c -0.59031,-0.0532 -1.55626,-0.0532 -2.14657,0 -0.59031,0.0532 -0.10733,0.0967 1.07328,0.0967 1.18062,0 1.6636,-0.0435 1.07329,-0.0967 z m 7.47184,-0.85344 c 2.748,-0.59195 7.10925,-1.91967 7.48831,-2.27971 0.39711,-0.37717 -1.28605,-0.088 -3.66184,0.62907 -4.18849,1.26422 -8.0154,1.89812 -11.94793,1.9791 l -2.3177,0.0477 2.27284,0.17203 c 3.04229,0.23026 5.23613,0.083 8.16632,-0.54821 z"
         style="opacity:1;fill:#000000;fill-opacity:0;stroke:none;stroke-width:0.06585877;stroke-miterlimit:4;stroke-dasharray:none;stroke-dashoffset:0;stroke-opacity:1" />
      <path
         transform="scale(0.26458333)"
         inkscape:connector-curvature="0"
         id="path4776"
         d="m 334.9157,855.03072 c -9.05645,-0.94817 -18.19979,-4.69289 -27.2156,-11.14627 -1.31951,-0.94449 -2.88958,-2.14471 -3.48905,-2.66711 l -1.08994,-0.94987 0.70586,-2.58851 c 0.38822,-1.42369 0.77359,-2.58852 0.85639,-2.58852 0.0828,0 0.79124,0.49753 1.57432,1.10559 5.65428,4.39065 15.24925,9.69804 16.88009,9.33711 0.40152,-0.0889 0.49251,-0.0567 0.27646,0.0977 -0.40427,0.28891 3.76198,1.61652 7.51938,2.39611 2.25459,0.46777 3.50249,0.55167 8.33376,0.56013 6.40354,0.0111 9.02933,-0.36565 14.20987,-2.03963 5.10493,-1.64952 12.04594,-4.86646 12.05161,-5.58551 0.004,-0.45439 -0.21332,-0.39717 -1.76528,0.46581 -2.56069,1.42388 -6.91931,3.3162 -9.84899,4.27602 -8.97338,2.93983 -17.93682,3.1839 -26.68766,0.72673 -1.43664,-0.4034 -2.78134,-0.73347 -2.98823,-0.73347 -0.20688,0 -0.37615,-0.087 -0.37615,-0.19327 0,-0.10629 -0.59662,-0.40302 -1.32582,-0.65942 -0.72921,-0.25641 -2.55622,-1.07165 -4.06004,-1.81166 -1.57054,-0.77287 -2.90479,-1.28004 -3.13502,-1.1917 -0.2584,0.0992 -0.33837,0.0528 -0.22506,-0.13054 0.10102,-0.16347 -0.12297,-0.46593 -0.52678,-0.7114 -4.27588,-2.59907 -9.66614,-6.5087 -9.66957,-7.01345 -0.001,-0.15627 0.29712,-1.43715 0.66262,-2.84641 l 0.66456,-2.56228 1.54708,1.25605 c 3.59886,2.92184 9.85718,6.77112 10.29575,6.33256 0.16727,-0.16728 -0.32609,-0.56902 -1.47055,-1.19749 -4.09428,-2.24831 -10.25691,-6.79511 -10.07584,-7.43397 0.72425,-2.55533 1.6669,-6.15328 1.77932,-6.79141 0.10258,-0.58228 0.046,-0.8045 -0.20477,-0.8045 -0.19057,0 -1.00196,-0.8227 -1.80308,-1.82821 -12.28844,-15.42369 -21.67377,-38.94896 -26.37221,-66.10455 -2.50828,-14.49712 -3.42467,-25.69386 -3.42071,-41.79506 0.003,-11.27362 0.2145,-15.91553 1.14567,-25.11843 4.91685,-48.59429 23.46006,-87.04242 47.50132,-98.49087 5.35165,-2.54845 9.02799,-3.39751 14.72931,-3.40176 4.48305,-0.003 6.71429,0.3485 10.6066,1.67256 6.34373,2.15796 11.883,5.83758 17.94535,11.9207 17.4261,17.48579 29.8216,49.88446 33.68262,88.03772 0.96902,9.57558 1.13949,13.36329 1.14224,25.38008 0.003,12.08471 -0.16802,15.87541 -1.14915,25.50635 -3.14256,30.84809 -11.9467,58.33646 -24.66976,77.02414 -2.45094,3.59995 -5.31543,7.19733 -5.73103,7.19733 -0.17985,0 -0.38131,0.28411 -0.44769,0.63135 -0.0664,0.34724 -0.0406,0.63134 0.0573,0.63134 0.0979,0 0.54316,1.39212 0.98949,3.09359 0.44634,1.70148 0.86267,3.27081 0.92517,3.48741 0.20805,0.7209 -5.96069,4.91171 -11.38032,7.73135 -2.69603,1.40267 -3.36108,1.8407 -2.80083,1.84476 1.37213,0.01 9.02061,-4.36415 13.05637,-7.46685 l 1.41669,-1.08916 0.70148,2.64653 c 0.38581,1.45559 0.65744,2.6843 0.60361,2.73047 -0.75422,0.6469 -4.68574,3.41216 -6.03251,4.24301 -0.9699,0.59834 -1.76442,1.22996 -1.76561,1.40358 -0.001,0.17362 0.0831,0.31565 0.18724,0.31565 0.28665,-5e-5 3.8873,-2.3454 6.0045,-3.91116 l 1.87484,-1.3865 0.40769,1.44928 c 0.22423,0.79711 0.56796,2.00972 0.76385,2.69468 0.19589,0.68496 0.35616,1.32141 0.35616,1.41429 0,0.0929 -1.27847,1.08536 -2.84105,2.20547 -9.16526,6.57 -18.29965,10.6143 -27.21098,12.04776 -3.04362,0.48959 -8.81404,0.67529 -11.67528,0.37572 z m 8.64482,-13.1495 c 1.31951,-0.14936 2.54116,-0.27997 2.71478,-0.29025 0.17362,-0.0104 0.31568,-0.17124 0.31568,-0.35764 0,-0.26645 -0.31047,-0.29795 -1.4521,-0.14731 -0.79865,0.10539 -3.61129,0.18241 -6.25032,0.17117 -3.94046,-0.0167 -5.26681,-0.12038 -7.41947,-0.57965 -3.41743,-0.7291 -6.87348,-1.84519 -9.99265,-3.22698 -3.17972,-1.40863 -4.20915,-1.2242 -1.14943,0.20592 7.61576,3.55965 15.86181,5.0591 23.23351,4.22474 z m 6.43972,-1.09602 c 4.21181,-1.03078 8.38984,-2.58296 8.0005,-2.9723 -0.15159,-0.1516 -1.1408,0.0974 -2.68613,0.67622 -1.34539,0.50392 -3.65972,1.20938 -5.14296,1.56774 -3.52167,0.85077 -3.32814,0.78759 -3.32814,1.08657 0,0.37143 0.32681,0.33433 3.15673,-0.35823 z m -8.64021,-3.35525 c -0.72413,-0.0508 -1.9742,-0.0513 -2.77792,0 -0.80372,0.0503 -0.21125,0.0919 1.31661,0.0924 1.52785,0 2.18544,-0.0406 1.46131,-0.0914 z m -6.51208,-0.45944 c -2.65643,-0.44886 -6.05124,-1.44636 -8.12968,-2.38877 -0.92001,-0.41715 -1.71421,-0.717 -1.76488,-0.66632 -0.15656,0.15655 3.27208,1.61012 5.11571,2.16878 2.40238,0.72799 4.85829,1.24004 5.91527,1.2333 0.48614,-0.003 -0.0253,-0.15923 -1.13642,-0.34699 z m 9.40705,0.2187 c -0.24307,-0.0635 -0.64082,-0.0635 -0.88389,0 -0.24306,0.0635 -0.0442,0.11548 0.44195,0.11548 0.48613,0 0.68501,-0.052 0.44194,-0.11548 z m 1.6415,-0.24572 c -0.17362,-0.0701 -0.45773,-0.0701 -0.63135,0 -0.17362,0.0701 -0.0316,0.12738 0.31567,0.12738 0.34724,0 0.4893,-0.0573 0.31568,-0.12738 z m 1.26269,-0.25254 c -0.17362,-0.0701 -0.45773,-0.0701 -0.63135,0 -0.17362,0.0701 -0.0316,0.12738 0.31567,0.12738 0.34724,0 0.4893,-0.0573 0.31568,-0.12738 z m -22.79157,-3.06542 c 0,-0.19937 -2.11406,-1.31857 -2.469,-1.30711 -0.13433,0.004 1.9392,1.28181 2.40587,1.48222 0.0347,0.0149 0.0631,-0.0639 0.0631,-0.17511 z m -3.40926,-2.07062 c -0.41669,-0.27596 -0.87126,-0.50175 -1.01016,-0.50175 -0.13889,0 0.0884,0.22579 0.50508,0.50175 0.41669,0.27596 0.87126,0.50174 1.01015,0.50174 0.1389,0 -0.0884,-0.22578 -0.50507,-0.50174 z m -1.89404,-1.26269 c -0.34724,-0.27162 -0.74499,-0.49385 -0.88388,-0.49385 -0.1389,0 0.0316,0.22223 0.3788,0.49385 0.34724,0.27161 0.74499,0.49384 0.88389,0.49384 0.13889,0 -0.0316,-0.22223 -0.37881,-0.49384 z m -1.38896,-1.01016 c -0.0858,-0.13889 -0.26972,-0.25254 -0.40861,-0.25254 -0.1389,0 -0.18231,0.11365 -0.0965,0.25254 0.0858,0.1389 0.26972,0.25254 0.40862,0.25254 0.13889,0 0.1823,-0.11364 0.0965,-0.25254 z m -1.26269,-1.01015 c -0.0858,-0.1389 -0.26972,-0.25254 -0.40862,-0.25254 -0.13889,0 -0.1823,0.11364 -0.0965,0.25254 0.0858,0.1389 0.26972,0.25254 0.40862,0.25254 0.13889,0 0.1823,-0.11364 0.0965,-0.25254 z m -1.38896,-1.13642 c -0.17291,-0.20835 -0.42803,-0.37881 -0.56692,-0.37881 -0.14087,0 -0.11353,0.1675 0.0618,0.37881 0.17291,0.20834 0.42803,0.37881 0.56692,0.37881 0.14088,0 0.11353,-0.1675 -0.0618,-0.37881 z m 50.00255,0.12627 c 0,-0.1389 -0.0501,-0.25254 -0.11136,-0.25254 -0.0613,0 -0.1816,0.11364 -0.26745,0.25254 -0.0858,0.13889 -0.0357,0.25254 0.11137,0.25254 0.14709,0 0.26744,-0.11365 0.26744,-0.25254 z m -53.27938,-3.15048 c -0.75104,-0.76049 -1.42216,-1.32608 -1.49137,-1.25687 -0.16541,0.1654 2.27496,2.63958 2.60351,2.63958 0.13937,0 -0.36109,-0.62222 -1.11214,-1.38271 z m 56.93465,-0.12591 c 0.82108,-0.82975 1.43619,-1.56531 1.36691,-1.63459 -0.0693,-0.0693 -0.85499,0.60959 -1.74603,1.50862 -0.89103,0.89902 -1.50615,1.63459 -1.36691,1.63459 0.13923,0 0.92494,-0.67888 1.74603,-1.50862 z m -27.09061,-131.8572 c 3.42153,-0.71134 6.56622,-3.20569 8.05652,-6.39039 3.52121,-7.52466 -1.92609,-16.05982 -10.2497,-16.05982 -8.43388,0 -13.84639,8.74043 -10.10941,16.32524 2.26076,4.58859 7.39576,7.1451 12.30259,6.12497 z m -23.23351,-30.55711 c 5.91231,-1.22918 10.04001,-7.02978 9.0885,-12.77196 -0.63349,-3.82295 -3.14607,-7.14917 -6.61382,-8.75556 -2.19377,-1.01624 -5.62393,-1.22065 -7.98126,-0.47562 -3.6637,1.1579 -6.49415,4.05493 -7.55603,7.73377 -0.31315,1.08489 -0.40103,2.11219 -0.32407,3.78807 0.0892,1.94249 0.2319,2.56211 0.91908,3.99107 2.32531,4.83534 7.4916,7.52474 12.4676,6.49023 z m 48.30612,-0.2726 c 2.92615,-0.75046 5.78494,-3.18542 7.21045,-6.14144 0.75889,-1.57369 0.8626,-2.04502 0.94459,-4.29315 0.10423,-2.85791 -0.33059,-4.54093 -1.74104,-6.73894 -4.62341,-7.20496 -15.76737,-6.54135 -19.55143,1.16425 -2.36339,4.81266 -1.41914,9.85783 2.5255,13.49388 2.79644,2.57766 6.73191,3.51051 10.61193,2.5154 z"
         style="opacity:1;fill:#000000;fill-opacity:0;stroke:none;stroke-width:0.06585877;stroke-miterlimit:4;stroke-dasharray:none;stroke-dashoffset:0;stroke-opacity:1" />
      <path
         transform="scale(0.26458333)"
         inkscape:connector-curvature="0"
         id="path4778"
         d="m 334.84795,836.97051 c -5.94224,-1.00404 -11.58239,-3.5443 -17.29886,-7.7912 -3.01592,-2.24059 -9.36451,-8.38855 -9.17426,-8.88433 0.0796,-0.20733 -0.0181,-0.35683 -0.23299,-0.35683 -0.72642,0 -5.58094,-6.57886 -8.85147,-11.99556 -2.5071,-4.15227 -6.73484,-12.73086 -8.74783,-17.75036 -11.91486,-29.71036 -16.59429,-67.83183 -12.88375,-104.95885 3.10715,-31.08956 11.90559,-58.65338 24.76325,-77.57852 9.07481,-13.35717 19.70088,-21.48976 31.36652,-24.00616 2.88608,-0.62256 9.33838,-0.62321 12.29734,-10e-4 23.91204,5.02627 44.1029,35.5271 52.88416,79.88818 2.77189,14.003 4.10217,27.04562 4.36133,42.76035 0.69202,41.9622 -8.93399,81.56215 -25.87477,106.44483 -2.51505,3.69412 -5.31889,7.19733 -5.76047,7.19733 -0.19604,0 -0.35644,0.20765 -0.35644,0.46144 0,0.66911 -6.24519,6.69884 -9.24839,8.92932 -8.72864,6.48275 -18.26724,9.15827 -27.24337,7.6416 z m 6.74297,-144.84234 c 3.75958,-0.78162 7.21605,-3.7101 8.45907,-7.16693 0.66152,-1.83968 0.86246,-3.80066 0.57604,-5.62161 -1.74234,-11.07722 -16.65572,-13.2888 -21.47779,-3.18505 -3.94027,8.25609 3.5168,17.82928 12.44268,15.97359 z M 318.7899,661.46005 c 5.6899,-1.34119 9.58968,-7.02639 8.66162,-12.62709 -0.63226,-3.81556 -2.98504,-7.01531 -6.3545,-8.64203 -1.6716,-0.80702 -2.19221,-0.93324 -4.22651,-1.02467 -4.13898,-0.18601 -7.47021,1.36017 -9.82649,4.56094 -1.59671,2.16898 -2.21284,4.35564 -2.06874,7.34197 0.13329,2.76236 0.97085,4.84882 2.74819,6.84604 1.15711,1.30025 3.08129,2.67138 3.74891,2.67138 0.21471,0 -0.31824,-0.46302 -1.18435,-1.02894 -5.90065,-3.85548 -6.68739,-12.14242 -1.61123,-16.97149 4.34571,-4.13418 11.16053,-4.07175 15.26531,0.13984 6.50678,6.67612 2.37552,17.76579 -6.90828,18.54411 -1.48962,0.12488 -3.41197,-0.1126 -4.5992,-0.56819 -0.24276,-0.0931 -0.44138,-0.0583 -0.44138,0.0774 0,0.2161 1.03282,0.56907 2.65165,0.90621 1.07315,0.2235 2.5905,0.14097 4.145,-0.22545 z m 46.4889,0.12365 c 3.70766,-0.59126 6.93143,-2.99855 8.60643,-6.42668 0.83711,-1.71325 0.86375,-1.86123 0.86375,-4.79823 0,-2.93699 -0.0266,-3.08497 -0.86375,-4.79822 -1.65909,-3.39556 -5.0499,-5.91959 -8.60643,-6.40642 -8.99246,-1.23089 -15.80259,7.9316 -11.94947,16.07708 1.68883,3.57017 5.77656,6.28173 9.92916,6.58644 0.20835,0.0153 1.11748,-0.09 2.02031,-0.23397 z"
         style="opacity:1;fill:#000000;fill-opacity:0;stroke:none;stroke-width:0.06585877;stroke-miterlimit:4;stroke-dasharray:none;stroke-dashoffset:0;stroke-opacity:1" />
      <path
         transform="scale(0.26458333)"
         inkscape:connector-curvature="0"
         id="path4780"
         d="m 333.42604,841.03002 c -7.22368,-1.17417 -13.87348,-3.90305 -20.80144,-8.53628 -3.08968,-2.0663 -6.20841,-4.54561 -6.10481,-4.85317 0.0468,-0.1389 0.46802,-1.69401 0.93609,-3.4558 l 0.85103,-3.20326 2.66392,2.71068 c 18.04476,18.36151 39.2417,18.53533 57.43505,0.47099 1.65045,-1.63875 3.03175,-2.94726 3.06957,-2.9078 0.0378,0.0395 0.47629,1.6059 0.97439,3.481 l 0.90563,3.40926 -0.56593,0.45383 c -0.31127,0.24961 -2.27058,1.59651 -4.35402,2.99311 -6.75679,4.52934 -14.06965,7.72841 -20.73312,9.06989 -3.53636,0.71194 -10.9788,0.90355 -14.27636,0.36755 z"
         style="opacity:1;fill:#000000;fill-opacity:0;stroke:none;stroke-width:0.06585877;stroke-miterlimit:4;stroke-dasharray:none;stroke-dashoffset:0;stroke-opacity:1" />
      <path
         transform="scale(0.26458333)"
         inkscape:connector-curvature="0"
         id="path4782"
         d="m 333.42604,841.03002 c -7.22368,-1.17417 -13.87348,-3.90305 -20.80144,-8.53628 -3.08968,-2.0663 -6.20841,-4.54561 -6.10481,-4.85317 0.0468,-0.1389 0.46802,-1.69401 0.93609,-3.4558 l 0.85103,-3.20326 2.66392,2.71068 c 18.04476,18.36151 39.2417,18.53533 57.43505,0.47099 1.65045,-1.63875 3.03175,-2.94726 3.06957,-2.9078 0.0378,0.0395 0.47629,1.6059 0.97439,3.481 l 0.90563,3.40926 -0.56593,0.45383 c -0.31127,0.24961 -2.27058,1.59651 -4.35402,2.99311 -6.75679,4.52934 -14.06965,7.72841 -20.73312,9.06989 -3.53636,0.71194 -10.9788,0.90355 -14.27636,0.36755 z"
         style="opacity:1;fill:#000000;fill-opacity:0;stroke:none;stroke-width:0.06585877;stroke-miterlimit:4;stroke-dasharray:none;stroke-dashoffset:0;stroke-opacity:1" />
      <path
         transform="scale(0.26458333)"
         inkscape:connector-curvature="0"
         id="path4787"
         d="m 337.33354,841.51229 c -8.25499,-0.48824 -16.18429,-3.28216 -24.14841,-8.50879 -2.01503,-1.3224 -3.49149,-2.39377 -5.61952,-4.07768 -0.65976,-0.52207 -1.20488,-0.95125 -1.21138,-0.95374 -0.0234,-0.009 1.91161,-7.17509 1.94061,-7.18704 0.0163,-0.007 0.42714,0.42804 0.91292,0.96615 1.82545,2.0221 4.22487,4.32799 6.28123,6.03639 6.33919,5.26654 13.1524,8.48495 19.95051,9.42419 1.75969,0.24313 2.47333,0.28916 4.48256,0.28916 2.00922,0 2.72286,-0.046 4.48255,-0.28916 7.21978,-0.99749 14.48364,-4.58848 21.15007,-10.45583 1.759,-1.54815 3.9117,-3.69052 5.41289,-5.3869 0.38928,-0.43989 0.4996,-0.53228 0.53594,-0.4488 0.0574,0.13181 1.94429,7.19063 1.93939,7.25515 -0.006,0.0828 -2.25414,1.73908 -3.86028,2.84446 -8.3587,5.75264 -16.68847,9.18887 -24.73607,10.20425 -2.23587,0.2821 -5.49937,0.40729 -7.51301,0.28819 z"
         style="opacity:1;fill:#000000;fill-opacity:0;stroke:none;stroke-width:0.01646469;stroke-miterlimit:4;stroke-dasharray:none;stroke-dashoffset:0;stroke-opacity:1" />
      <path
         sodipodi:nodetypes="cc"
         inkscape:connector-curvature="0"
         id="path4789"
         d="m 81.546421,216.95196 c 5.666728,6.23342 11.306551,6.21583 16.756509,0"
         style="fill:none;stroke:#000000;stroke-width:0.16500001;stroke-linecap:butt;stroke-linejoin:miter;stroke-miterlimit:4;stroke-dasharray:none;stroke-opacity:1" />
      <path
         transform="scale(0.26458333)"
         inkscape:connector-curvature="0"
         id="path4793"
         d="m 337.74391,848.2017 c -10.4815,-0.35362 -20.95619,-4.57782 -31.26381,-12.60797 -0.72248,-0.56285 -1.42231,-1.11637 -1.55516,-1.23004 l -0.24156,-0.20667 0.73404,-2.74619 c 0.40373,-1.51041 0.74793,-2.7934 0.7649,-2.85108 0.0238,-0.081 0.25668,0.0764 1.02274,0.69119 8.78986,7.05461 17.74225,11.20105 26.80624,12.41574 2.10003,0.28143 2.77522,0.31946 5.62665,0.31689 2.92274,-0.003 3.87459,-0.069 6.34159,-0.44237 8.74393,-1.32328 17.64967,-5.38442 26.7723,-12.20857 0.46869,-0.35059 0.85784,-0.61591 0.8648,-0.58959 0.007,0.0263 0.32665,1.22368 0.71043,2.66081 0.38379,1.43712 0.69779,2.65033 0.69779,2.69602 0,0.0457 -0.43326,0.4074 -0.96281,0.8038 -8.41478,6.29907 -16.49442,10.29004 -24.62037,12.16132 -2.65879,0.61228 -5.56845,1.01664 -7.97283,1.10801 -1.84599,0.0702 -2.37554,0.0742 -3.72494,0.0287 z"
         style="opacity:1;fill:#000000;fill-opacity:0;stroke:none;stroke-width:0.03937209;stroke-miterlimit:4;stroke-dasharray:none;stroke-dashoffset:0;stroke-opacity:1" />
      <path
         transform="scale(0.26458333)"
         inkscape:connector-curvature="0"
         id="path4795"
         d="m 337.33354,841.51229 c -8.25499,-0.48824 -16.18429,-3.28216 -24.14841,-8.50879 -2.01503,-1.3224 -3.49149,-2.39377 -5.61952,-4.07768 -0.65976,-0.52207 -1.20488,-0.95125 -1.21138,-0.95374 -0.0234,-0.009 1.91161,-7.17509 1.94061,-7.18704 0.0163,-0.007 0.42714,0.42804 0.91292,0.96615 2.95861,3.27733 6.54047,6.46217 9.84833,8.75673 2.81271,1.95109 6.53317,3.95355 9.58653,5.15976 7.05741,2.78797 13.96139,3.02426 21.00215,0.71881 4.03784,-1.32216 8.06644,-3.54535 12.65848,-6.9856 2.91742,-2.18567 6.10897,-5.14423 8.66432,-8.03185 0.38928,-0.43989 0.4996,-0.53228 0.53594,-0.4488 0.0574,0.13181 1.94429,7.19063 1.93939,7.25515 -0.006,0.0828 -2.25414,1.73908 -3.86028,2.84446 -8.3587,5.75264 -16.68847,9.18887 -24.73607,10.20425 -2.23587,0.2821 -5.49937,0.40729 -7.51301,0.28819 z"
         style="opacity:1;fill:#000000;fill-opacity:0;stroke:none;stroke-width:0.03937209;stroke-miterlimit:4;stroke-dasharray:none;stroke-dashoffset:0;stroke-opacity:1" />
      <path
         transform="scale(0.26458333)"
         inkscape:connector-curvature="0"
         id="path4804"
         d="m 337.33354,841.51229 c -8.25499,-0.48824 -16.18429,-3.28216 -24.14841,-8.50879 -2.01503,-1.3224 -3.49149,-2.39377 -5.61952,-4.07768 -0.65976,-0.52207 -1.20488,-0.95125 -1.21138,-0.95374 -0.0234,-0.009 1.91161,-7.17509 1.94061,-7.18704 0.0163,-0.007 0.42714,0.42804 0.91292,0.96615 2.95861,3.27733 6.54047,6.46217 9.84833,8.75673 2.81271,1.95109 6.53317,3.95355 9.58653,5.15976 7.05741,2.78797 13.96139,3.02426 21.00215,0.71881 4.03784,-1.32216 8.06644,-3.54535 12.65848,-6.9856 2.91742,-2.18567 6.10897,-5.14423 8.66432,-8.03185 0.38928,-0.43989 0.4996,-0.53228 0.53594,-0.4488 0.0574,0.13181 1.94429,7.19063 1.93939,7.25515 -0.006,0.0828 -2.25414,1.73908 -3.86028,2.84446 -8.3587,5.75264 -16.68847,9.18887 -24.73607,10.20425 -2.23587,0.2821 -5.49937,0.40729 -7.51301,0.28819 z"
         style="opacity:1;fill:#3e3e3e;fill-opacity:1;stroke:none;stroke-width:0.03937209;stroke-miterlimit:4;stroke-dasharray:none;stroke-dashoffset:0;stroke-opacity:1" />
      <path
         transform="scale(0.26458333)"
         inkscape:connector-curvature="0"
         id="path4806"
         d="m 337.74391,848.2017 c -10.4815,-0.35362 -20.95619,-4.57782 -31.26381,-12.60797 -0.72248,-0.56285 -1.42231,-1.11637 -1.55516,-1.23004 l -0.24156,-0.20667 0.73404,-2.74619 c 0.40373,-1.51041 0.74793,-2.7934 0.7649,-2.85108 0.0238,-0.081 0.25668,0.0764 1.02274,0.69119 8.78986,7.05461 17.74225,11.20105 26.80624,12.41574 2.10003,0.28143 2.77522,0.31946 5.62665,0.31689 2.92274,-0.003 3.87459,-0.069 6.34159,-0.44237 8.74393,-1.32328 17.64967,-5.38442 26.7723,-12.20857 0.46869,-0.35059 0.85784,-0.61591 0.8648,-0.58959 0.007,0.0263 0.32665,1.22368 0.71043,2.66081 0.38379,1.43712 0.69779,2.65033 0.69779,2.69602 0,0.0457 -0.43326,0.4074 -0.96281,0.8038 -8.41478,6.29907 -16.49442,10.29004 -24.62037,12.16132 -2.65879,0.61228 -5.56845,1.01664 -7.97283,1.10801 -1.84599,0.0702 -2.37554,0.0742 -3.72494,0.0287 z"
         style="opacity:1;fill:#3e3e3e;fill-opacity:1;stroke:none;stroke-width:0.03937209;stroke-miterlimit:4;stroke-dasharray:none;stroke-dashoffset:0;stroke-opacity:1" />
      <path
         transform="scale(0.26458333)"
         inkscape:connector-curvature="0"
         id="path4808"
         d="m 337.42824,855.29956 c -3.25802,-0.17807 -6.2051,-0.60782 -9.09137,-1.32572 -8.37687,-2.08356 -16.53353,-6.40812 -24.8167,-13.1575 l -0.50991,-0.41549 0.76405,-2.84865 0.76405,-2.84864 0.62974,0.50455 c 9.22979,7.39493 18.6147,11.78803 27.96699,13.09142 1.97837,0.27571 3.1098,0.3573 5.42957,0.39154 2.46993,0.0365 3.669,-0.0138 5.68211,-0.2383 8.88845,-0.99106 17.79761,-4.59376 27.04485,-10.93642 0.91209,-0.62561 2.96933,-2.11615 3.56799,-2.58516 0.16955,-0.13282 0.31948,-0.23029 0.33319,-0.21659 0.0137,0.0137 0.3656,1.30025 0.78199,2.85899 0.41639,1.55873 0.76753,2.86351 0.78031,2.89951 0.0241,0.068 -1.84684,1.4951 -3.43488,2.61993 -6.09546,4.31749 -12.41826,7.62307 -18.40371,9.62152 -4.03954,1.34874 -7.95365,2.15382 -12.1534,2.49979 -0.82059,0.0676 -4.56339,0.12739 -5.33487,0.0852 z"
         style="opacity:1;fill:#3e3e3e;fill-opacity:1;stroke:none;stroke-width:0.03937209;stroke-miterlimit:4;stroke-dasharray:none;stroke-dashoffset:0;stroke-opacity:1" />
      <path
         transform="scale(0.26458333)"
         inkscape:connector-curvature="0"
         id="path4810"
         d="m 337.30197,861.55188 c -1.50519,-0.0902 -2.54529,-0.17481 -3.47025,-0.28215 -10.49058,-1.21748 -20.87127,-5.93145 -31.12483,-14.13407 -0.58886,-0.47108 -1.1082,-0.88515 -1.1541,-0.92017 -0.0673,-0.0513 0.0462,-0.54796 0.58397,-2.55695 0.36709,-1.3713 0.68233,-2.54285 0.70053,-2.60344 0.0271,-0.0902 0.12661,-0.0324 0.54981,0.3195 1.99314,1.65736 5.22002,3.99972 7.56225,5.48937 6.67698,4.24653 13.38648,6.99009 20.09745,8.21799 2.96511,0.54252 5.01031,0.72188 8.27548,0.72571 3.18212,0.004 5.03678,-0.14409 7.92338,-0.63155 9.26702,-1.56495 18.71996,-5.92642 28.27641,-13.04639 0.74224,-0.553 1.37004,-0.98202 1.39512,-0.95339 0.0472,0.0539 1.32753,4.80603 1.32753,4.92732 0,0.0715 -2.25982,1.77498 -3.72494,2.80789 -5.15249,3.63247 -10.66812,6.69083 -15.68893,8.69933 -5.46,2.1842 -10.60592,3.41615 -16.09931,3.85423 -0.83052,0.0662 -4.73214,0.12858 -5.42957,0.0868 z"
         style="opacity:1;fill:#3e3e3e;fill-opacity:1;stroke:none;stroke-width:0.03937209;stroke-miterlimit:4;stroke-dasharray:none;stroke-dashoffset:0;stroke-opacity:1" />
      <path
         transform="scale(0.26458333)"
         inkscape:connector-curvature="0"
         id="path4816"
         d="m 337.14269,837.10606 c -3.54176,-0.37239 -7.59909,-1.6069 -11.19167,-3.40522 -5.1973,-2.60161 -9.82959,-6.13251 -15.27292,-11.64158 -2.08878,-2.11401 -2.24018,-2.24043 -2.54451,-2.12472 -0.3077,0.11699 -0.39166,0.0382 -1.71046,-1.60532 -16.1846,-20.16937 -26.94397,-53.35494 -29.50405,-91.00057 -0.43057,-6.33139 -0.50662,-8.89993 -0.50662,-17.10946 0,-8.20954 0.0761,-10.77807 0.50662,-17.10946 2.14247,-31.50474 10.08554,-60.20232 22.30531,-80.587 3.47316,-5.79384 7.28987,-10.89128 11.20664,-14.96712 l 1.5471,-1.60993 h 27.94397 27.94397 l 1.54223,1.60993 c 23.28728,24.30955 36.74155,75.32293 33.64356,127.56333 -2.0606,34.74688 -11.12984,66.15405 -25.14838,87.08986 -2.25958,3.37452 -5.70737,7.82914 -6.01994,7.77785 -0.0787,-0.0129 -0.25775,-0.0587 -0.39784,-0.10173 -0.20747,-0.0637 -0.57051,0.26601 -1.95718,1.77777 -5.46053,5.95312 -11.82119,10.69754 -17.57187,13.10686 -4.84555,2.03011 -9.99843,2.84284 -14.81396,2.33651 z m 4.44407,-145.01559 c 2.14823,-0.44373 3.94736,-1.36724 5.49769,-2.82203 2.42152,-2.27228 3.63216,-5.03229 3.63216,-8.28054 0,-3.87439 -1.89233,-7.3755 -5.12901,-9.48949 -1.93954,-1.26678 -3.82722,-1.81159 -6.27683,-1.81159 -5.00259,0 -9.41454,3.34682 -10.82078,8.20846 -0.38963,1.347 -0.48201,3.87533 -0.19412,5.3126 0.40548,2.02436 1.37145,3.87729 2.83912,5.44598 1.73594,1.85544 3.66445,2.94916 6.07083,3.44297 1.14406,0.23476 3.22823,0.23174 4.38094,-0.006 z m -22.27474,-30.78708 c 5.33887,-1.59169 8.68449,-6.51601 8.16409,-12.01649 -0.41456,-4.38182 -3.42402,-8.17914 -7.61068,-9.60311 -1.26735,-0.43106 -2.24723,-0.57803 -3.80968,-0.57144 -2.935,0.0124 -5.48573,1.06334 -7.68492,3.16633 -2.16008,2.06559 -3.30179,4.57577 -3.44938,7.58389 -0.2731,5.56604 3.45884,10.42982 8.92459,11.63129 1.5679,0.34465 3.94942,0.26166 5.46598,-0.19047 z m 47.05181,0.0523 c 4.04766,-1.03346 7.13797,-4.11957 8.23292,-8.22173 0.22723,-0.85131 0.28338,-1.39936 0.28338,-2.76627 0,-1.36691 -0.0562,-1.91496 -0.28338,-2.76627 -0.55017,-2.06118 -1.52401,-3.75718 -3.00554,-5.23432 -2.20544,-2.19891 -4.81803,-3.28252 -7.93202,-3.28993 -2.26553,-0.005 -4.01405,0.46256 -5.92784,1.58642 -1.2358,0.7257 -3.24992,2.77834 -3.94653,4.02199 -2.71572,4.84831 -1.68911,10.70534 2.51265,14.33513 2.6871,2.32132 6.58167,3.2247 10.06636,2.33498 z"
         style="opacity:1;fill:#000000;fill-opacity:1;stroke:none;stroke-width:0.07874417;stroke-miterlimit:4;stroke-dasharray:none;stroke-dashoffset:0;stroke-opacity:1" />
      <path
         transform="scale(0.26458333)"
         inkscape:connector-curvature="0"
         id="path6298"
         d="m 312.78007,595.31566 c 1.95046,-2.20218 7.99309,-6.54326 11.71903,-8.41907 8.53403,-4.29642 17.71475,-4.9444 26.43782,-1.86599 5.21838,1.84159 12.19214,6.24221 15.72245,9.92127 l 0.87029,0.90696 h -27.61533 -27.61534 z"
         style="opacity:1;fill:#ff0000;fill-opacity:1;stroke:none;stroke-width:0.15748835;stroke-miterlimit:4;stroke-dasharray:none;stroke-dashoffset:0;stroke-opacity:1" />
    </g>
    <path
       style="opacity:1;fill:#ffffff;fill-opacity:1;stroke:none;stroke-width:0.31497669;stroke-miterlimit:4;stroke-dasharray:none;stroke-dashoffset:0;stroke-opacity:1"
       d="m 315.44589,709.23185 c 0.3739,-0.26651 -0.23118,-0.34439 -1.52752,-0.1966 -1.18068,0.1346 -2.03457,0.0633 -1.89753,-0.15843 0.34976,-0.56592 -2.00548,-1.08549 -3.06957,-0.67716 -0.65158,0.25003 -0.77183,0.16191 -0.46236,-0.33882 0.30565,-0.49455 0.19198,-0.58991 -0.42222,-0.35422 -0.46226,0.17738 -0.84047,0.14122 -0.84047,-0.0804 0,-0.57774 -5.094,-2.87933 -5.95,-2.68835 -0.39455,0.088 -0.57454,-0.071 -0.39999,-0.35347 0.17455,-0.28243 -0.14356,-0.76019 -0.70693,-1.0617 -0.56336,-0.3015 -1.0243,-0.37598 -1.0243,-0.1655 0,0.21048 -0.34714,-0.11293 -0.77143,-0.71869 -0.45863,-0.65478 -1.08141,-0.98242 -1.53589,-0.80803 -0.42044,0.16134 -0.69833,0.0804 -0.61752,-0.1798 0.0808,-0.26023 -1.84181,-2.35841 -4.27249,-4.66263 -2.43068,-2.30421 -4.4196,-3.99428 -4.41982,-3.7557 -7e-4,0.76808 -3.51271,-3.48301 -6.52651,-7.89997 -14.46809,-21.20408 -23.49968,-51.89343 -25.78639,-87.62211 -3.20301,-50.04552 9.90441,-101.74659 31.87343,-125.72189 l 3.05474,-3.33372 h 28.12564 28.12564 l 3.27061,3.83396 c 15.98428,18.73746 26.60427,48.22973 30.62939,85.05947 1.28282,11.73779 1.28282,38.26475 0,50.00255 -2.87233,26.28168 -9.4072,49.89825 -18.58589,67.16817 -4.2986,8.0879 -11.29215,17.98838 -12.81349,18.13954 -0.2778,0.0276 -0.50508,0.23914 -0.50508,0.47008 0,0.48798 -3.90961,4.354 -4.30943,4.26138 -0.14785,-0.0342 -1.56838,1.13761 -3.15673,2.60412 -1.58835,1.46652 -2.89513,2.52962 -2.90397,2.36245 -0.009,-0.16717 -0.34976,0.13725 -0.75761,0.67648 -0.40785,0.53923 -0.74878,0.76651 -0.75761,0.50507 -0.009,-0.26143 -0.29295,-0.11186 -0.63135,0.33239 -0.33841,0.44426 -0.74738,0.78519 -0.90883,0.75762 -0.58068,-0.0991 -5.51483,2.4045 -5.51483,2.79828 0,0.2216 -0.37821,0.25776 -0.84047,0.0804 -0.59758,-0.22932 -0.72527,-0.13612 -0.44183,0.3225 0.29539,0.47794 0.12061,0.55677 -0.67475,0.30433 -0.59038,-0.18738 -1.07341,-0.14595 -1.07341,0.0921 0,0.23801 -0.51139,0.43696 -1.13642,0.4421 -3.38803,0.0279 -5.13481,0.29099 -4.24846,0.63996 0.51779,0.20386 -0.64983,0.36559 -2.63948,0.36559 -2.17076,0 -3.32557,-0.17283 -2.94887,-0.44132 z m 8.36283,-146.46422 c 3.26045,-2.15766 4.82298,-4.91631 5.04066,-8.89924 0.15874,-2.9045 -0.007,-3.69915 -1.27249,-6.10893 -3.42317,-6.51736 -11.97193,-8.05631 -17.42778,-3.13735 -5.86542,5.28822 -5.06781,14.10902 1.64474,18.18932 2.54679,1.5481 3.0278,1.66267 6.33707,1.50949 2.88802,-0.13368 3.98688,-0.4343 5.6778,-1.55329 z m -26.10745,-29.2392 c 2.6141,-0.7832 5.91153,-3.68211 7.05709,-6.20417 1.82326,-4.01411 0.96417,-9.47477 -1.97835,-12.57509 -5.54249,-5.83972 -15.21982,-4.33411 -18.58417,2.89134 -4.20955,9.04061 4.02535,18.72822 13.50543,15.88792 z m 49.3279,-0.87903 c 3.81978,-1.9487 6.15899,-5.80431 6.15899,-10.15156 0,-12.46321 -17.20927,-15.72837 -22.04735,-4.1831 -0.37459,0.89391 -0.68108,2.7763 -0.68108,4.1831 0,8.60804 8.90306,14.06266 16.56944,10.15156 z"
       id="path4933"
       inkscape:connector-curvature="0"
       transform="scale(0.26458333)"
       inkscape:export-xdpi="12.067954"
       inkscape:export-ydpi="12.067954" />
    <path
       style="opacity:1;fill:#b6b6b6;fill-opacity:1;stroke:none;stroke-width:0.31497669;stroke-miterlimit:4;stroke-dasharray:none;stroke-dashoffset:0;stroke-opacity:1"
       d="m 314.8081,733.5594 c -0.69132,-0.27576 -1.94139,-0.45716 -2.77792,-0.40312 -0.83653,0.054 -1.86189,-0.0435 -2.27858,-0.21677 -0.41668,-0.17325 -1.5531,-0.37519 -2.52538,-0.44874 -0.97227,-0.0736 -1.88141,-0.24738 -2.0203,-0.38627 -0.33815,-0.33815 -7.79146,-2.80548 -7.96489,-2.63668 -0.0749,0.0729 -0.41583,-0.10848 -0.75761,-0.40308 -0.34178,-0.29461 -2.50122,-1.60628 -4.79877,-2.91482 -6.0657,-3.45467 -12.48603,-8.22695 -11.71178,-8.70547 0.34733,-0.21466 0.49188,-0.75416 0.32122,-1.19888 -0.17065,-0.44472 -0.10594,-0.80859 0.14381,-0.80859 0.24976,0 0.52673,-0.45106 0.6155,-1.00236 0.14516,-0.90154 0.41382,-0.8026 2.67112,0.98373 1.38034,1.09234 2.58761,1.90818 2.68282,1.81297 0.0952,-0.0952 0.75588,0.367 1.46816,1.02712 0.71228,0.66012 1.49375,1.07743 1.7366,0.92734 0.24284,-0.15008 0.44153,-0.0402 0.44153,0.24423 0,0.71359 1.89535,1.66853 2.23165,1.12438 0.14996,-0.24263 -1.07358,-1.27209 -2.71896,-2.28769 -5.42174,-3.34648 -8.00402,-5.65895 -7.9211,-7.09345 0.0411,-0.71027 0.24511,-1.29156 0.45346,-1.29175 0.20834,-2e-4 0.37881,-0.41705 0.37881,-0.92633 0,-1.4135 0.57825,-1.68975 1.60051,-0.76462 0.50868,0.46035 0.92487,0.63756 0.92487,0.3938 0,-0.24376 0.35648,0.0657 0.79217,0.68778 0.4357,0.62204 0.98009,1.01485 1.20977,0.8729 0.22967,-0.14195 0.55344,0.0959 0.71949,0.52864 0.16604,0.4327 0.50696,0.65998 0.75761,0.50508 0.25065,-0.15491 0.59853,0.0905 0.77307,0.54535 0.17454,0.45485 0.44458,0.69977 0.60009,0.54426 0.15551,-0.1555 0.72666,0.16118 1.26922,0.70375 0.54257,0.54257 1.20548,0.85114 1.47314,0.68572 0.26766,-0.16543 0.48666,-0.0804 0.48666,0.18894 0,0.68804 5.08171,3.14593 5.70624,2.75995 0.28245,-0.17456 -0.94273,-1.05402 -2.72262,-1.95434 -1.77989,-0.90033 -3.40662,-1.53326 -3.61497,-1.40652 -0.20834,0.12674 -0.3788,0.0423 -0.3788,-0.18772 0,-0.22998 -2.02581,-1.84796 -4.50178,-3.5955 -4.42151,-3.1207 -4.49382,-3.20512 -4.05525,-4.73433 0.2456,-0.85634 0.36334,-1.69508 0.26165,-1.86388 -0.10169,-0.16879 0.10687,-0.57632 0.46347,-0.90562 0.50868,-0.46973 1.28622,-0.13836 3.60879,1.53799 4.04666,2.92074 6.74696,4.53 6.75623,4.02642 0.004,-0.231 0.17472,-0.18746 0.37881,0.0967 0.56794,0.7909 2.87493,2.1605 3.95349,2.34708 0.5298,0.0916 1.27668,0.46382 1.65974,0.82703 0.38305,0.36322 0.9934,0.54645 1.35632,0.40718 0.36293,-0.13926 0.73137,-0.0434 0.81876,0.21298 0.3827,1.12279 8.26436,2.60021 14.0485,2.6334 7.55256,0.0433 8.46048,-0.0188 8.82181,-0.6034 0.16605,-0.26868 0.57874,-0.38589 0.91709,-0.26046 0.33834,0.12543 1.29702,0.0299 2.1304,-0.21235 1.34661,-0.3914 1.40619,-0.48555 0.53536,-0.84606 -0.62837,-0.26014 -1.0515,-0.19075 -1.17956,0.19344 -0.10983,0.3295 -0.38237,0.48619 -0.60565,0.3482 -0.22327,-0.13799 -1.51074,-0.0199 -2.86105,0.26244 -3.4095,0.71287 -10.37022,0.57776 -14.5196,-0.28184 -1.91301,-0.39631 -3.67446,-0.59926 -3.91434,-0.45101 -0.23987,0.14825 -0.43614,0.0648 -0.43614,-0.18539 0,-0.25021 -0.96595,-0.74087 -2.14657,-1.09036 -1.18062,-0.34948 -4.12593,-1.65368 -6.54514,-2.89823 -2.41922,-1.24455 -4.53758,-2.18782 -4.70749,-2.09618 -0.1699,0.0917 -0.53418,-0.23589 -0.8095,-0.72787 -0.27533,-0.49198 -0.71391,-0.76267 -0.97463,-0.60153 -0.26071,0.16113 -0.47403,0.0716 -0.47403,-0.1989 0,-0.27053 -1.15782,-1.34179 -2.57293,-2.38058 -2.38506,-1.75079 -2.54687,-2.00287 -2.21606,-3.45228 0.19628,-0.85996 0.38814,-2.01814 0.42636,-2.57373 0.16749,-2.43502 1.03345,-2.16865 5.03478,1.54866 2.65731,2.46869 4.23027,3.58605 4.76137,3.38225 0.48462,-0.18597 0.66482,-0.0968 0.46327,0.22933 -0.1814,0.29353 0.009,0.81455 0.42222,1.15783 0.41363,0.34328 0.75206,0.43924 0.75206,0.21323 0,-0.226 0.3337,0.0303 0.74155,0.56951 0.40785,0.53923 0.74878,0.80995 0.75761,0.60161 0.009,-0.20835 0.47893,0.0841 1.04464,0.64976 0.56572,0.56572 1.24757,0.89323 1.51523,0.72781 0.26766,-0.16542 0.48665,-0.0876 0.48665,0.17284 0,0.4807 2.70063,1.79041 3.33114,1.61548 0.1892,-0.0525 0.5035,0.16264 0.69845,0.47807 0.19495,0.31544 0.84539,0.6105 1.44543,0.6557 0.60004,0.0452 1.09098,0.28542 1.09098,0.53381 0,0.2484 0.33364,0.3236 0.74144,0.16712 0.40779,-0.15649 0.88535,-0.0517 1.06124,0.23293 0.17589,0.2846 0.63773,0.39545 1.02632,0.24633 0.38859,-0.14911 0.70653,-0.0474 0.70653,0.22613 0,0.52355 0.55059,0.57346 6.43972,0.58374 4.11703,0.007 5.09913,-0.0665 6.18719,-0.46424 0.41668,-0.15232 1.28096,-0.34631 1.92061,-0.43108 1.83367,-0.24301 5.65553,-1.82169 5.65553,-2.3361 0,-0.25645 0.22729,-0.3258 0.50508,-0.15411 0.27779,0.17168 0.50507,0.058 0.50507,-0.25254 0,-0.31058 0.22729,-0.42423 0.50508,-0.25254 0.27779,0.17168 0.50508,0.058 0.50508,-0.25254 0,-0.31058 0.19286,-0.4455 0.42858,-0.29981 0.23572,0.14568 0.89338,-0.16814 1.46147,-0.69739 0.56808,-0.52925 1.16536,-0.82979 1.32729,-0.66786 0.16192,0.16193 0.43772,-0.079 0.61288,-0.53549 0.17515,-0.45645 0.61889,-0.82991 0.98608,-0.82991 0.36718,0 1.47929,-0.76551 2.47134,-1.70113 0.99205,-0.93563 1.80373,-1.56722 1.80373,-1.40355 0,0.16367 1.42053,-1.10017 3.15673,-2.80853 3.20818,-3.15675 4.06575,-3.33991 4.23859,-0.90532 0.14345,2.02069 1.09508,5.94324 1.51644,6.25068 0.44104,0.3218 0.62916,1.24374 0.76369,3.74259 0.0417,0.77384 0.26821,1.52592 0.50345,1.67131 0.23524,0.14538 0.4277,0.70549 0.4277,1.24468 0,0.53919 0.17046,0.98079 0.37881,0.98134 0.20834,5.6e-4 0.42647,0.68241 0.48474,1.51523 0.0583,0.83283 -0.0678,1.51423 -0.28011,1.51423 -0.21232,0 -1.22595,0.76933 -2.2525,1.70962 -1.02656,0.94029 -1.8737,1.56532 -1.88253,1.38896 -0.009,-0.17637 -0.32907,0.0922 -0.71163,0.59685 -0.38255,0.50464 -0.84777,0.87058 -1.03381,0.81321 -0.67202,-0.20724 -4.30685,2.14178 -4.02353,2.60021 0.32306,0.52272 2.24949,-0.31784 2.24949,-0.98153 0,-0.22172 0.30174,-0.40312 0.67053,-0.40312 0.91275,0 5.39039,-3.12164 5.39039,-3.75797 0,-0.28084 0.21158,-0.37986 0.47017,-0.22003 0.2586,0.15982 0.61294,0.0596 0.78743,-0.22273 0.47602,-0.77023 1.26778,-0.61766 1.26778,0.2443 0,0.41668 0.206,0.75761 0.45779,0.75761 0.25179,0 0.33892,0.45457 0.19363,1.01015 -0.14857,0.56813 -0.0155,1.01016 0.3041,1.01016 0.40661,0 0.39476,0.27782 -0.0417,0.97663 -0.33545,0.53715 -0.74619,0.93489 -0.91275,0.88388 -0.64725,-0.19823 -6.01363,3.87009 -5.7237,4.33921 0.16904,0.27352 -0.008,0.3849 -0.39429,0.2475 -0.97342,-0.34657 -2.57129,0.55548 -2.16072,1.21978 0.19784,0.32012 0.0473,0.44408 -0.36466,0.30021 -0.72805,-0.25427 -8.65365,3.50437 -8.95228,4.24554 -0.0932,0.23124 -0.34072,0.31457 -0.5501,0.18516 -0.20939,-0.1294 -1.94959,0.31294 -3.86713,0.98298 -1.91753,0.67004 -5.07925,1.46439 -7.02604,1.76524 -1.94679,0.30084 -4.50884,0.76622 -5.69344,1.03418 -2.63338,0.59568 -4.02792,0.57644 -5.66912,-0.0782 z m 14.64148,-6.91728 c 5.4786,-1.47447 6.37698,-1.85881 5.54573,-2.37255 -0.41534,-0.2567 -0.76266,-0.20083 -0.8766,0.14099 -0.10379,0.31136 -0.51495,0.44093 -0.91369,0.28792 -0.39874,-0.15301 -0.72543,-0.0834 -0.72599,0.15464 -5e-4,0.23807 -0.73762,0.48485 -1.63793,0.54841 -0.9003,0.0636 -1.70625,0.32354 -1.79098,0.57773 -0.0847,0.25419 -0.57207,0.35285 -1.08298,0.21924 -0.51092,-0.13361 -1.07551,-0.006 -1.25465,0.2841 -0.17915,0.28986 -0.65937,0.39898 -1.06716,0.2425 -0.40779,-0.15648 -1.13918,-0.12593 -1.62532,0.0679 -1.31511,0.52435 -14.1178,0.20349 -15.78363,-0.39556 -2.48835,-0.89483 -9.88079,-3.0553 -10.04506,-2.9357 -0.10784,0.0785 -0.33512,-0.0734 -0.50508,-0.33762 -0.5406,-0.8404 -4.53582,-2.64723 -4.82366,-2.18149 -0.41608,0.67322 8.55686,4.81059 9.35851,4.31515 0.2527,-0.15618 0.45945,-0.0702 0.45945,0.19097 0,0.44662 4.06427,1.71169 4.91206,1.52895 0.21518,-0.0464 0.73216,0.0521 1.14885,0.21883 1.57216,0.62908 2.9687,0.71283 9.84899,0.59066 5.1833,-0.092 8.08237,-0.39773 10.85914,-1.14506 z m 8.27964,-2.88942 c 0.42661,-0.42661 0.85905,-0.71071 0.96097,-0.63135 0.4023,0.31327 5.35342,-2.31105 5.10831,-2.70763 -0.29189,-0.4723 -4.2899,1.40601 -4.87101,2.28845 -0.20409,0.30992 -0.37455,0.40485 -0.3788,0.21096 -0.004,-0.19389 -0.68932,-0.11493 -1.52237,0.17547 -0.83304,0.2904 -1.38784,0.73315 -1.23288,0.98388 0.41166,0.66607 1.05645,0.55956 1.93578,-0.31978 z m -13.09716,-3.25881 c 4.32993,-0.70904 10.48721,-2.61971 10.00291,-3.10401 -0.46134,-0.46134 -4.17524,0.53048 -4.17524,1.11502 0,0.20517 -0.45457,0.25417 -1.01015,0.10888 -0.55558,-0.14529 -1.01128,-0.0672 -1.01265,0.17356 -0.001,0.24074 -1.05269,0.49876 -2.33626,0.57337 -1.28358,0.0746 -2.5391,0.26256 -2.79006,0.41766 -0.59698,0.36895 -10.5564,0.36086 -11.5387,-0.009 -0.41669,-0.15705 -1.68966,-0.36614 -2.82883,-0.46464 -1.13917,-0.0985 -2.33241,-0.34051 -2.65165,-0.53781 -0.31924,-0.1973 -0.80772,-0.21826 -1.08551,-0.0466 -0.27779,0.17168 -0.50508,0.098 -0.50508,-0.16383 0,-0.65069 -2.15406,-1.16714 -2.67891,-0.64228 -0.51228,0.51227 7.5276,2.75949 8.51586,2.38026 0.38318,-0.14704 0.83103,-0.05 0.99521,0.21567 0.3886,0.62876 9.22776,0.61802 13.09906,-0.0159 z m -23.2497,-2.97918 c 0.15216,-0.24621 -0.17512,-0.5658 -0.72731,-0.7102 -1.11742,-0.29221 -1.88076,0.41958 -0.88185,0.8223 0.98136,0.39564 1.30948,0.37278 1.60916,-0.1121 z m 35.8563,-0.63636 c 1.74077,-0.79315 1.13438,-1.50636 -0.72858,-0.85693 -0.8269,0.28826 -1.37668,0.72926 -1.22172,0.97999 0.35721,0.57797 0.42047,0.57398 1.9503,-0.12306 z m 2.86066,-1.66725 c 0.25406,0.15702 0.46194,0.0314 0.46194,-0.2792 0,-0.31058 0.2624,-0.40252 0.58311,-0.2043 0.35426,0.21894 0.44629,0.139 0.2345,-0.20369 -0.25582,-0.41392 -0.67569,-0.41504 -1.57742,-0.004 -0.67586,0.30794 -1.0807,0.79956 -0.89965,1.0925 0.22024,0.35635 0.39642,0.33087 0.53237,-0.077 0.11177,-0.33528 0.41109,-0.48114 0.66515,-0.32412 z m 5.00762,-2.73337 c 0,-0.22436 0.30762,-0.40793 0.6836,-0.40793 1.02947,0 6.91272,-4.27278 6.5938,-4.78882 -0.32368,-0.52372 -3.23679,1.41964 -3.23679,2.15929 0,0.27527 -0.21331,0.36865 -0.47403,0.20752 -0.26072,-0.16114 -0.6789,0.0731 -0.92929,0.52052 -0.25039,0.44742 -0.54846,0.75952 -0.66238,0.69356 -0.43276,-0.25058 -4.50029,2.09477 -4.50029,2.59488 0,0.28854 -0.2624,0.36244 -0.58311,0.16423 -0.36062,-0.22287 -0.44604,-0.13859 -0.22388,0.22088 0.26329,0.42601 0.7563,0.37594 1.84581,-0.18747 0.81761,-0.4228 1.48656,-0.9523 1.48656,-1.17666 z m -10.82607,-1.32805 c 3.79872,-1.42983 9.31085,-4.26572 9.31085,-4.79026 0,-0.19279 0.30173,-0.35053 0.67052,-0.35053 0.91275,0 5.39039,-3.12163 5.39039,-3.75797 0,-0.28084 0.21158,-0.37985 0.47018,-0.22003 0.25859,0.15982 0.60323,0.0753 0.76585,-0.18783 0.64948,-1.05088 -0.71533,-0.99382 -1.45401,0.0608 -0.43569,0.62205 -0.79217,0.96355 -0.79217,0.7589 0,-0.20465 -0.90914,0.22955 -2.02031,0.96489 -1.11117,0.73534 -2.0203,1.57194 -2.0203,1.85911 0,0.28718 -0.14246,0.37968 -0.31657,0.20557 -0.42837,-0.42837 -3.21897,1.0508 -3.21897,1.70622 0,0.28705 -0.22728,0.38144 -0.50507,0.20976 -0.27779,-0.17169 -0.50508,-0.058 -0.50508,0.25254 0,0.31058 -0.22728,0.42422 -0.50508,0.25253 -0.27779,-0.17168 -0.50507,-0.058 -0.50507,0.25254 0,0.31058 -0.22729,0.42423 -0.50508,0.25254 -0.27779,-0.17168 -0.50507,-0.0715 -0.50507,0.22273 0,0.29419 -0.17047,0.50797 -0.37881,0.47507 -1.01917,-0.16092 -2.13967,0.12153 -2.74184,0.69116 -0.36709,0.34724 -0.89471,0.63836 -1.1725,0.64694 -1.4692,0.0453 -3.75892,0.88566 -3.51014,1.2882 0.3799,0.61468 0.23159,0.64373 4.04828,-0.79287 z"
       id="path4935"
       inkscape:connector-curvature="0"
       transform="scale(0.26458333)"
       inkscape:export-xdpi="12.067954"
       inkscape:export-ydpi="12.067954" />
    <path
       style="opacity:1;fill:#b6b6b6;fill-opacity:1;stroke:none;stroke-width:0.31497669;stroke-miterlimit:4;stroke-dasharray:none;stroke-dashoffset:0;stroke-opacity:1"
       d="m 337.27826,532.31178 c -10.35936,-5.37678 -7.01056,-20.42054 4.54569,-20.42054 9.34558,0 14.25115,10.78179 8.03574,17.6615 -0.96031,1.06295 -2.51371,2.29693 -3.45199,2.74217 -2.18886,1.03869 -7.14309,1.04784 -9.12944,0.0169 z"
       id="path4937"
       inkscape:connector-curvature="0"
       transform="scale(0.26458333)"
       inkscape:export-xdpi="12.067954"
       inkscape:export-ydpi="12.067954" />
    <path
       style="opacity:1;fill:#b6b6b6;fill-opacity:1;stroke:none;stroke-width:0.31497669;stroke-miterlimit:4;stroke-dasharray:none;stroke-dashoffset:0;stroke-opacity:1"
       d="m 314.13818,563.40051 c -4.34582,-1.30444 -7.78823,-6.63161 -7.24567,-11.21275 0.68608,-5.79286 5.04382,-9.75386 10.68778,-9.71475 5.25861,0.0364 9.08608,2.91682 10.39905,7.82587 2.2082,8.2562 -5.54231,15.5926 -13.84116,13.10163 z"
       id="path4939"
       inkscape:connector-curvature="0"
       transform="scale(0.26458333)"
       inkscape:export-xdpi="12.067954"
       inkscape:export-ydpi="12.067954" />
    <path
       style="opacity:1;fill:#000000;fill-opacity:1;stroke:none;stroke-width:0.31497669;stroke-miterlimit:4;stroke-dasharray:none;stroke-dashoffset:0;stroke-opacity:1"
       d="m 291.65422,533.01119 c -4.17808,-0.93102 -8.15339,-6.02192 -8.16376,-10.45475 -0.009,-3.77196 2.81175,-8.13626 6.2749,-9.70918 7.60233,-3.4529 16.1107,2.49858 15.32103,10.71684 -0.62834,6.53927 -6.84864,10.91412 -13.43217,9.44709 z"
       id="path4941"
       inkscape:connector-curvature="0"
       transform="scale(0.26458333)"
       inkscape:export-xdpi="12.067954"
       inkscape:export-ydpi="12.067954" />
    <path
       style="opacity:1;fill:#000000;fill-opacity:1;stroke:none;stroke-width:0.31497669;stroke-miterlimit:4;stroke-dasharray:none;stroke-dashoffset:0;stroke-opacity:1"
       d="m 338.38184,532.62091 c -4.15361,-1.33455 -7.07191,-5.51195 -7.07191,-10.12307 0,-12.44575 17.65818,-14.44603 20.91028,-2.36867 1.04713,3.88874 -0.98452,8.88287 -4.58214,11.26366 -2.16122,1.43022 -6.73742,2.03738 -9.25623,1.22808 z"
       id="path4943"
       inkscape:connector-curvature="0"
       transform="scale(0.26458333)"
       inkscape:export-xdpi="12.067954"
       inkscape:export-ydpi="12.067954" />
    <path
       style="opacity:1;fill:#000000;fill-opacity:1;stroke:none;stroke-width:0.31497669;stroke-miterlimit:4;stroke-dasharray:none;stroke-dashoffset:0;stroke-opacity:1"
       d="m 314.29729,563.3987 c -2.46459,-0.5744 -6.24693,-4.75468 -6.99689,-7.73303 -1.67753,-6.66206 3.31565,-12.96478 10.27103,-12.96478 5.23511,0 8.72812,2.49301 10.09844,7.20739 2.45616,8.45003 -4.5731,15.54123 -13.37258,13.49042 z"
       id="path4945"
       inkscape:connector-curvature="0"
       transform="scale(0.26458333)"
       inkscape:export-xdpi="12.067954"
       inkscape:export-ydpi="12.067954" />
  </g>
</svg>
